<?xml version="1.0" encoding="utf-8" standalone="no"?>
<!DOCTYPE svg PUBLIC "-//W3C//DTD SVG 1.1//EN"
  "http://www.w3.org/Graphics/SVG/1.1/DTD/svg11.dtd">
<svg xmlns:xlink="http://www.w3.org/1999/xlink" width="874.537092pt" height="369.708366pt" viewBox="0 0 874.537092 369.708366" xmlns="http://www.w3.org/2000/svg" version="1.1">
 <metadata>
  <rdf:RDF xmlns:dc="http://purl.org/dc/elements/1.1/" xmlns:cc="http://creativecommons.org/ns#" xmlns:rdf="http://www.w3.org/1999/02/22-rdf-syntax-ns#">
   <cc:Work>
    <dc:type rdf:resource="http://purl.org/dc/dcmitype/StillImage"/>
    <dc:date>2026-10-09T12:04:22.975910</dc:date>
    <dc:format>image/svg+xml</dc:format>
    <dc:creator>
     <cc:Agent>
      <dc:title>Matplotlib v3.5.1, https://matplotlib.org/</dc:title>
     </cc:Agent>
    </dc:creator>
   </cc:Work>
  </rdf:RDF>
 </metadata>
 <defs>
  <style type="text/css">*{stroke-linejoin: round; stroke-linecap: butt}</style>
 </defs>
 <g id="figure_1">
  <g id="patch_1">
   <path d="M 0 369.708366 
L 874.537092 369.708366 
L 874.537092 0 
L 0 0 
z
" style="fill: #ffffff"/>
  </g>
  <g id="patch_2">
   <path d="M 7.2 344.88 
L 280.8 344.88 
L 280.8 71.28 
L 7.2 71.28 
z
" style="fill: #ffffff"/>
  </g>
  <g id="pane3d_1">
   <g id="patch_3">
    <path d="M 39.218905 290.987338 
L 129.986503 240.310986 
L 129.244921 88.545911 
L 34.296864 128.829448 
" style="fill: #f2f2f2; opacity: 0.5; stroke: #f2f2f2; stroke-linejoin: miter"/>
   </g>
  </g>
  <g id="pane3d_2">
   <g id="patch_4">
    <path d="M 129.986503 240.310986 
L 253.634929 274.963851 
L 258.324121 116.062849 
L 129.244921 88.545911 
" style="fill: #e6e6e6; opacity: 0.5; stroke: #e6e6e6; stroke-linejoin: miter"/>
   </g>
  </g>
  <g id="pane3d_3">
   <g id="patch_5">
    <path d="M 39.218905 290.987338 
L 167.960021 331.584148 
L 253.634929 274.963851 
L 129.986503 240.310986 
" style="fill: #ececec; opacity: 0.5; stroke: #ececec; stroke-linejoin: miter"/>
   </g>
  </g>
  <g id="axis3d_1">
   <g id="line2d_1">
    <path d="M 39.218905 290.987338 
L 167.960021 331.584148 
" style="fill: none; stroke: #000000; stroke-width: 0.8; stroke-linecap: square"/>
   </g>
   <g id="text_1">
    <!-- World X (m) -->
    <g transform="translate(56.036548 342.659193)rotate(-342.49802)scale(0.1 -0.1)">
     <defs>
      <path id="DejaVuSans-57" d="M 213 4666 
L 850 4666 
L 1831 722 
L 2809 4666 
L 3519 4666 
L 4500 722 
L 5478 4666 
L 6119 4666 
L 4947 0 
L 4153 0 
L 3169 4050 
L 2175 0 
L 1381 0 
L 213 4666 
z
" transform="scale(0.015625)"/>
      <path id="DejaVuSans-6f" d="M 1959 3097 
Q 1497 3097 1228 2736 
Q 959 2375 959 1747 
Q 959 1119 1226 758 
Q 1494 397 1959 397 
Q 2419 397 2687 759 
Q 2956 1122 2956 1747 
Q 2956 2369 2687 2733 
Q 2419 3097 1959 3097 
z
M 1959 3584 
Q 2709 3584 3137 3096 
Q 3566 2609 3566 1747 
Q 3566 888 3137 398 
Q 2709 -91 1959 -91 
Q 1206 -91 779 398 
Q 353 888 353 1747 
Q 353 2609 779 3096 
Q 1206 3584 1959 3584 
z
" transform="scale(0.015625)"/>
      <path id="DejaVuSans-72" d="M 2631 2963 
Q 2534 3019 2420 3045 
Q 2306 3072 2169 3072 
Q 1681 3072 1420 2755 
Q 1159 2438 1159 1844 
L 1159 0 
L 581 0 
L 581 3500 
L 1159 3500 
L 1159 2956 
Q 1341 3275 1631 3429 
Q 1922 3584 2338 3584 
Q 2397 3584 2469 3576 
Q 2541 3569 2628 3553 
L 2631 2963 
z
" transform="scale(0.015625)"/>
      <path id="DejaVuSans-6c" d="M 603 4863 
L 1178 4863 
L 1178 0 
L 603 0 
L 603 4863 
z
" transform="scale(0.015625)"/>
      <path id="DejaVuSans-64" d="M 2906 2969 
L 2906 4863 
L 3481 4863 
L 3481 0 
L 2906 0 
L 2906 525 
Q 2725 213 2448 61 
Q 2172 -91 1784 -91 
Q 1150 -91 751 415 
Q 353 922 353 1747 
Q 353 2572 751 3078 
Q 1150 3584 1784 3584 
Q 2172 3584 2448 3432 
Q 2725 3281 2906 2969 
z
M 947 1747 
Q 947 1113 1208 752 
Q 1469 391 1925 391 
Q 2381 391 2643 752 
Q 2906 1113 2906 1747 
Q 2906 2381 2643 2742 
Q 2381 3103 1925 3103 
Q 1469 3103 1208 2742 
Q 947 2381 947 1747 
z
" transform="scale(0.015625)"/>
      <path id="DejaVuSans-20" transform="scale(0.015625)"/>
      <path id="DejaVuSans-58" d="M 403 4666 
L 1081 4666 
L 2241 2931 
L 3406 4666 
L 4084 4666 
L 2584 2425 
L 4184 0 
L 3506 0 
L 2194 1984 
L 872 0 
L 191 0 
L 1856 2491 
L 403 4666 
z
" transform="scale(0.015625)"/>
      <path id="DejaVuSans-28" d="M 1984 4856 
Q 1566 4138 1362 3434 
Q 1159 2731 1159 2009 
Q 1159 1288 1364 580 
Q 1569 -128 1984 -844 
L 1484 -844 
Q 1016 -109 783 600 
Q 550 1309 550 2009 
Q 550 2706 781 3412 
Q 1013 4119 1484 4856 
L 1984 4856 
z
" transform="scale(0.015625)"/>
      <path id="DejaVuSans-6d" d="M 3328 2828 
Q 3544 3216 3844 3400 
Q 4144 3584 4550 3584 
Q 5097 3584 5394 3201 
Q 5691 2819 5691 2113 
L 5691 0 
L 5113 0 
L 5113 2094 
Q 5113 2597 4934 2840 
Q 4756 3084 4391 3084 
Q 3944 3084 3684 2787 
Q 3425 2491 3425 1978 
L 3425 0 
L 2847 0 
L 2847 2094 
Q 2847 2600 2669 2842 
Q 2491 3084 2119 3084 
Q 1678 3084 1418 2786 
Q 1159 2488 1159 1978 
L 1159 0 
L 581 0 
L 581 3500 
L 1159 3500 
L 1159 2956 
Q 1356 3278 1631 3431 
Q 1906 3584 2284 3584 
Q 2666 3584 2933 3390 
Q 3200 3197 3328 2828 
z
" transform="scale(0.015625)"/>
      <path id="DejaVuSans-29" d="M 513 4856 
L 1013 4856 
Q 1481 4119 1714 3412 
Q 1947 2706 1947 2009 
Q 1947 1309 1714 600 
Q 1481 -109 1013 -844 
L 513 -844 
Q 928 -128 1133 580 
Q 1338 1288 1338 2009 
Q 1338 2731 1133 3434 
Q 928 4138 513 4856 
z
" transform="scale(0.015625)"/>
     </defs>
     <use xlink:href="#DejaVuSans-57"/>
     <use xlink:href="#DejaVuSans-6f" x="93.001953"/>
     <use xlink:href="#DejaVuSans-72" x="154.183594"/>
     <use xlink:href="#DejaVuSans-6c" x="195.296875"/>
     <use xlink:href="#DejaVuSans-64" x="223.080078"/>
     <use xlink:href="#DejaVuSans-20" x="286.556641"/>
     <use xlink:href="#DejaVuSans-58" x="318.34375"/>
     <use xlink:href="#DejaVuSans-20" x="386.849609"/>
     <use xlink:href="#DejaVuSans-28" x="418.636719"/>
     <use xlink:href="#DejaVuSans-6d" x="457.650391"/>
     <use xlink:href="#DejaVuSans-29" x="555.0625"/>
    </g>
   </g>
   <g id="Line3DCollection_1">
    <path d="M 47.514505 293.603246 
L 137.986705 242.553068 
L 137.578606 90.322475 
" style="fill: none; stroke: #b0b0b0; stroke-width: 0.8"/>
    <path d="M 71.283559 301.098504 
L 160.884299 248.970192 
L 161.44433 95.410139 
" style="fill: none; stroke: #b0b0b0; stroke-width: 0.8"/>
    <path d="M 95.57718 308.759176 
L 184.248896 255.518195 
L 185.817694 100.606022 
" style="fill: none; stroke: #b0b0b0; stroke-width: 0.8"/>
    <path d="M 120.412926 316.5908 
L 208.094931 262.201122 
L 210.715068 105.913612 
" style="fill: none; stroke: #b0b0b0; stroke-width: 0.8"/>
    <path d="M 145.809149 324.599163 
L 232.437437 269.023187 
L 236.153534 111.336552 
" style="fill: none; stroke: #b0b0b0; stroke-width: 0.8"/>
   </g>
   <g id="xtick_1">
    <g id="line2d_2">
     <path d="M 48.295905 293.162331 
L 45.94869 294.486779 
" style="fill: none; stroke: #000000; stroke-width: 0.8; stroke-linecap: square"/>
    </g>
    <g id="text_2">
     <!-- −0.6 -->
     <g transform="translate(27.81535 318.260036)scale(0.1 -0.1)">
      <defs>
       <path id="DejaVuSans-2212" d="M 678 2272 
L 4684 2272 
L 4684 1741 
L 678 1741 
L 678 2272 
z
" transform="scale(0.015625)"/>
       <path id="DejaVuSans-30" d="M 2034 4250 
Q 1547 4250 1301 3770 
Q 1056 3291 1056 2328 
Q 1056 1369 1301 889 
Q 1547 409 2034 409 
Q 2525 409 2770 889 
Q 3016 1369 3016 2328 
Q 3016 3291 2770 3770 
Q 2525 4250 2034 4250 
z
M 2034 4750 
Q 2819 4750 3233 4129 
Q 3647 3509 3647 2328 
Q 3647 1150 3233 529 
Q 2819 -91 2034 -91 
Q 1250 -91 836 529 
Q 422 1150 422 2328 
Q 422 3509 836 4129 
Q 1250 4750 2034 4750 
z
" transform="scale(0.015625)"/>
       <path id="DejaVuSans-2e" d="M 684 794 
L 1344 794 
L 1344 0 
L 684 0 
L 684 794 
z
" transform="scale(0.015625)"/>
       <path id="DejaVuSans-36" d="M 2113 2584 
Q 1688 2584 1439 2293 
Q 1191 2003 1191 1497 
Q 1191 994 1439 701 
Q 1688 409 2113 409 
Q 2538 409 2786 701 
Q 3034 994 3034 1497 
Q 3034 2003 2786 2293 
Q 2538 2584 2113 2584 
z
M 3366 4563 
L 3366 3988 
Q 3128 4100 2886 4159 
Q 2644 4219 2406 4219 
Q 1781 4219 1451 3797 
Q 1122 3375 1075 2522 
Q 1259 2794 1537 2939 
Q 1816 3084 2150 3084 
Q 2853 3084 3261 2657 
Q 3669 2231 3669 1497 
Q 3669 778 3244 343 
Q 2819 -91 2113 -91 
Q 1303 -91 875 529 
Q 447 1150 447 2328 
Q 447 3434 972 4092 
Q 1497 4750 2381 4750 
Q 2619 4750 2861 4703 
Q 3103 4656 3366 4563 
z
" transform="scale(0.015625)"/>
      </defs>
      <use xlink:href="#DejaVuSans-2212"/>
      <use xlink:href="#DejaVuSans-30" x="83.789062"/>
      <use xlink:href="#DejaVuSans-2e" x="147.412109"/>
      <use xlink:href="#DejaVuSans-36" x="179.199219"/>
     </g>
    </g>
   </g>
   <g id="xtick_2">
    <g id="line2d_3">
     <path d="M 72.058055 300.647914 
L 69.731547 302.00144 
" style="fill: none; stroke: #000000; stroke-width: 0.8; stroke-linecap: square"/>
    </g>
    <g id="text_3">
     <!-- −0.4 -->
     <g transform="translate(51.57312 325.964562)scale(0.1 -0.1)">
      <defs>
       <path id="DejaVuSans-34" d="M 2419 4116 
L 825 1625 
L 2419 1625 
L 2419 4116 
z
M 2253 4666 
L 3047 4666 
L 3047 1625 
L 3713 1625 
L 3713 1100 
L 3047 1100 
L 3047 0 
L 2419 0 
L 2419 1100 
L 313 1100 
L 313 1709 
L 2253 4666 
z
" transform="scale(0.015625)"/>
      </defs>
      <use xlink:href="#DejaVuSans-2212"/>
      <use xlink:href="#DejaVuSans-30" x="83.789062"/>
      <use xlink:href="#DejaVuSans-2e" x="147.412109"/>
      <use xlink:href="#DejaVuSans-34" x="179.199219"/>
     </g>
    </g>
   </g>
   <g id="xtick_3">
    <g id="line2d_4">
     <path d="M 96.344274 308.298591 
L 94.039965 309.682163 
" style="fill: none; stroke: #000000; stroke-width: 0.8; stroke-linecap: square"/>
    </g>
    <g id="text_4">
     <!-- −0.2 -->
     <g transform="translate(75.856801 333.839639)scale(0.1 -0.1)">
      <defs>
       <path id="DejaVuSans-32" d="M 1228 531 
L 3431 531 
L 3431 0 
L 469 0 
L 469 531 
Q 828 903 1448 1529 
Q 2069 2156 2228 2338 
Q 2531 2678 2651 2914 
Q 2772 3150 2772 3378 
Q 2772 3750 2511 3984 
Q 2250 4219 1831 4219 
Q 1534 4219 1204 4116 
Q 875 4013 500 3803 
L 500 4441 
Q 881 4594 1212 4672 
Q 1544 4750 1819 4750 
Q 2544 4750 2975 4387 
Q 3406 4025 3406 3419 
Q 3406 3131 3298 2873 
Q 3191 2616 2906 2266 
Q 2828 2175 2409 1742 
Q 1991 1309 1228 531 
z
" transform="scale(0.015625)"/>
      </defs>
      <use xlink:href="#DejaVuSans-2212"/>
      <use xlink:href="#DejaVuSans-30" x="83.789062"/>
      <use xlink:href="#DejaVuSans-2e" x="147.412109"/>
      <use xlink:href="#DejaVuSans-32" x="179.199219"/>
     </g>
    </g>
   </g>
   <g id="xtick_4">
    <g id="line2d_5">
     <path d="M 121.172095 316.119883 
L 118.891559 317.534513 
" style="fill: none; stroke: #000000; stroke-width: 0.8; stroke-linecap: square"/>
    </g>
    <g id="text_5">
     <!-- 0.0 -->
     <g transform="translate(104.873895 341.890993)scale(0.1 -0.1)">
      <use xlink:href="#DejaVuSans-30"/>
      <use xlink:href="#DejaVuSans-2e" x="63.623047"/>
      <use xlink:href="#DejaVuSans-30" x="95.410156"/>
     </g>
    </g>
   </g>
   <g id="xtick_5">
    <g id="line2d_6">
     <path d="M 146.559837 324.117562 
L 144.304743 325.564308 
" style="fill: none; stroke: #000000; stroke-width: 0.8; stroke-linecap: square"/>
    </g>
    <g id="text_6">
     <!-- 0.2 -->
     <g transform="translate(130.263172 350.124609)scale(0.1 -0.1)">
      <use xlink:href="#DejaVuSans-30"/>
      <use xlink:href="#DejaVuSans-2e" x="63.623047"/>
      <use xlink:href="#DejaVuSans-32" x="95.410156"/>
     </g>
    </g>
   </g>
  </g>
  <g id="axis3d_2">
   <g id="line2d_7">
    <path d="M 253.634929 274.963851 
L 167.960021 331.584148 
" style="fill: none; stroke: #000000; stroke-width: 0.8; stroke-linecap: square"/>
   </g>
   <g id="text_7">
    <!-- World Y (m) -->
    <g transform="translate(212.538157 355.189926)rotate(-33.459669)scale(0.1 -0.1)">
     <defs>
      <path id="DejaVuSans-59" d="M -13 4666 
L 666 4666 
L 1959 2747 
L 3244 4666 
L 3922 4666 
L 2272 2222 
L 2272 0 
L 1638 0 
L 1638 2222 
L -13 4666 
z
" transform="scale(0.015625)"/>
     </defs>
     <use xlink:href="#DejaVuSans-57"/>
     <use xlink:href="#DejaVuSans-6f" x="93.001953"/>
     <use xlink:href="#DejaVuSans-72" x="154.183594"/>
     <use xlink:href="#DejaVuSans-6c" x="195.296875"/>
     <use xlink:href="#DejaVuSans-64" x="223.080078"/>
     <use xlink:href="#DejaVuSans-20" x="286.556641"/>
     <use xlink:href="#DejaVuSans-59" x="318.34375"/>
     <use xlink:href="#DejaVuSans-20" x="379.427734"/>
     <use xlink:href="#DejaVuSans-28" x="411.214844"/>
     <use xlink:href="#DejaVuSans-6d" x="450.228516"/>
     <use xlink:href="#DejaVuSans-29" x="547.640625"/>
    </g>
   </g>
   <g id="Line3DCollection_2">
    <path d="M 50.942296 121.767304 
L 55.087473 282.127777 
L 182.992539 321.649551 
" style="fill: none; stroke: #b0b0b0; stroke-width: 0.8"/>
    <path d="M 69.86622 113.738465 
L 73.150859 272.042828 
L 200.076168 310.35943 
" style="fill: none; stroke: #b0b0b0; stroke-width: 0.8"/>
    <path d="M 88.209051 105.956167 
L 90.682641 262.25468 
L 216.628515 299.420418 
" style="fill: none; stroke: #b0b0b0; stroke-width: 0.8"/>
    <path d="M 105.99715 98.409224 
L 107.705945 252.750418 
L 232.673985 288.816389 
" style="fill: none; stroke: #b0b0b0; stroke-width: 0.8"/>
    <path d="M 123.255305 91.08712 
L 124.242576 243.517871 
L 248.235508 278.532186 
" style="fill: none; stroke: #b0b0b0; stroke-width: 0.8"/>
   </g>
   <g id="xtick_6">
    <g id="line2d_8">
     <path d="M 181.909918 321.315029 
L 185.160827 322.319537 
" style="fill: none; stroke: #000000; stroke-width: 0.8; stroke-linecap: square"/>
    </g>
    <g id="text_8">
     <!-- −0.6 -->
     <g transform="translate(181.65975 345.608812)scale(0.1 -0.1)">
      <use xlink:href="#DejaVuSans-2212"/>
      <use xlink:href="#DejaVuSans-30" x="83.789062"/>
      <use xlink:href="#DejaVuSans-2e" x="147.412109"/>
      <use xlink:href="#DejaVuSans-36" x="179.199219"/>
     </g>
    </g>
   </g>
   <g id="xtick_7">
    <g id="line2d_9">
     <path d="M 199.00277 310.035389 
L 202.225935 311.008408 
" style="fill: none; stroke: #000000; stroke-width: 0.8; stroke-linecap: square"/>
    </g>
    <g id="text_9">
     <!-- −0.4 -->
     <g transform="translate(198.590378 334.04817)scale(0.1 -0.1)">
      <use xlink:href="#DejaVuSans-2212"/>
      <use xlink:href="#DejaVuSans-30" x="83.789062"/>
      <use xlink:href="#DejaVuSans-2e" x="147.412109"/>
      <use xlink:href="#DejaVuSans-34" x="179.199219"/>
     </g>
    </g>
   </g>
   <g id="xtick_8">
    <g id="line2d_10">
     <path d="M 215.564295 299.106374 
L 218.759856 300.049362 
" style="fill: none; stroke: #000000; stroke-width: 0.8; stroke-linecap: square"/>
    </g>
    <g id="text_10">
     <!-- −0.2 -->
     <g transform="translate(214.993939 322.847422)scale(0.1 -0.1)">
      <use xlink:href="#DejaVuSans-2212"/>
      <use xlink:href="#DejaVuSans-30" x="83.789062"/>
      <use xlink:href="#DejaVuSans-2e" x="147.412109"/>
      <use xlink:href="#DejaVuSans-32" x="179.199219"/>
     </g>
    </g>
   </g>
   <g id="xtick_9">
    <g id="line2d_11">
     <path d="M 231.618887 288.511886 
L 234.787011 289.426211 
" style="fill: none; stroke: #000000; stroke-width: 0.8; stroke-linecap: square"/>
    </g>
    <g id="text_11">
     <!-- 0.0 -->
     <g transform="translate(235.084512 311.990019)scale(0.1 -0.1)">
      <use xlink:href="#DejaVuSans-30"/>
      <use xlink:href="#DejaVuSans-2e" x="63.623047"/>
      <use xlink:href="#DejaVuSans-30" x="95.410156"/>
     </g>
    </g>
   </g>
   <g id="xtick_10">
    <g id="line2d_12">
     <path d="M 247.189471 278.236796 
L 250.330347 279.123747 
" style="fill: none; stroke: #000000; stroke-width: 0.8; stroke-linecap: square"/>
    </g>
    <g id="text_12">
     <!-- 0.2 -->
     <g transform="translate(250.505181 301.460413)scale(0.1 -0.1)">
      <use xlink:href="#DejaVuSans-30"/>
      <use xlink:href="#DejaVuSans-2e" x="63.623047"/>
      <use xlink:href="#DejaVuSans-32" x="95.410156"/>
     </g>
    </g>
   </g>
  </g>
  <g id="axis3d_3">
   <g id="line2d_13">
    <path d="M 253.634929 274.963851 
L 258.324121 116.062849 
" style="fill: none; stroke: #000000; stroke-width: 0.8; stroke-linecap: square"/>
   </g>
   <g id="text_13">
    <!-- Z (m) -->
    <g transform="translate(295.645014 208.626934)rotate(-88.309684)scale(0.1 -0.1)">
     <defs>
      <path id="DejaVuSans-5a" d="M 359 4666 
L 4025 4666 
L 4025 4184 
L 1075 531 
L 4097 531 
L 4097 0 
L 288 0 
L 288 481 
L 3238 4134 
L 359 4134 
L 359 4666 
z
" transform="scale(0.015625)"/>
     </defs>
     <use xlink:href="#DejaVuSans-5a"/>
     <use xlink:href="#DejaVuSans-20" x="68.505859"/>
     <use xlink:href="#DejaVuSans-28" x="100.292969"/>
     <use xlink:href="#DejaVuSans-6d" x="139.306641"/>
     <use xlink:href="#DejaVuSans-29" x="236.71875"/>
    </g>
   </g>
   <g id="Line3DCollection_3">
    <path d="M 253.724814 271.917957 
L 129.972256 237.395326 
L 39.124655 287.882251 
" style="fill: none; stroke: #b0b0b0; stroke-width: 0.8"/>
    <path d="M 254.515785 245.114582 
L 129.846938 211.749053 
L 38.295106 260.552536 
" style="fill: none; stroke: #b0b0b0; stroke-width: 0.8"/>
    <path d="M 255.318647 217.908291 
L 129.719836 185.737556 
L 37.452782 232.801981 
" style="fill: none; stroke: #b0b0b0; stroke-width: 0.8"/>
    <path d="M 256.133669 190.28993 
L 129.590911 159.352977 
L 36.597388 204.620788 
" style="fill: none; stroke: #b0b0b0; stroke-width: 0.8"/>
    <path d="M 256.961129 162.250068 
L 129.460124 132.587231 
L 35.728615 175.998856 
" style="fill: none; stroke: #b0b0b0; stroke-width: 0.8"/>
    <path d="M 257.801315 133.778979 
L 129.327433 105.431999 
L 34.846148 146.925764 
" style="fill: none; stroke: #b0b0b0; stroke-width: 0.8"/>
   </g>
   <g id="xtick_11">
    <g id="line2d_14">
     <path d="M 252.681045 271.626782 
L 255.815096 272.501073 
" style="fill: none; stroke: #000000; stroke-width: 0.8; stroke-linecap: square"/>
    </g>
    <g id="text_14">
     <!-- 0.0 -->
     <g transform="translate(262.653948 278.260625)scale(0.1 -0.1)">
      <use xlink:href="#DejaVuSans-30"/>
      <use xlink:href="#DejaVuSans-2e" x="63.623047"/>
      <use xlink:href="#DejaVuSans-30" x="95.410156"/>
     </g>
    </g>
   </g>
   <g id="xtick_12">
    <g id="line2d_15">
     <path d="M 253.463885 244.833058 
L 256.622373 245.678375 
" style="fill: none; stroke: #000000; stroke-width: 0.8; stroke-linecap: square"/>
    </g>
    <g id="text_15">
     <!-- 0.2 -->
     <g transform="translate(263.569107 251.498886)scale(0.1 -0.1)">
      <use xlink:href="#DejaVuSans-30"/>
      <use xlink:href="#DejaVuSans-2e" x="63.623047"/>
      <use xlink:href="#DejaVuSans-32" x="95.410156"/>
     </g>
    </g>
   </g>
   <g id="xtick_13">
    <g id="line2d_16">
     <path d="M 254.258487 217.636743 
L 257.441797 218.452112 
" style="fill: none; stroke: #000000; stroke-width: 0.8; stroke-linecap: square"/>
    </g>
    <g id="text_16">
     <!-- 0.4 -->
     <g transform="translate(264.497996 224.335629)scale(0.1 -0.1)">
      <use xlink:href="#DejaVuSans-30"/>
      <use xlink:href="#DejaVuSans-2e" x="63.623047"/>
      <use xlink:href="#DejaVuSans-34" x="95.410156"/>
     </g>
    </g>
   </g>
   <g id="xtick_14">
    <g id="line2d_17">
     <path d="M 255.065119 190.028693 
L 258.273643 190.813108 
" style="fill: none; stroke: #000000; stroke-width: 0.8; stroke-linecap: square"/>
    </g>
    <g id="text_17">
     <!-- 0.6 -->
     <g transform="translate(265.440926 196.761749)scale(0.1 -0.1)">
      <use xlink:href="#DejaVuSans-30"/>
      <use xlink:href="#DejaVuSans-2e" x="63.623047"/>
      <use xlink:href="#DejaVuSans-36" x="95.410156"/>
     </g>
    </g>
   </g>
   <g id="xtick_15">
    <g id="line2d_18">
     <path d="M 255.884056 161.999489 
L 259.118195 162.751905 
" style="fill: none; stroke: #000000; stroke-width: 0.8; stroke-linecap: square"/>
    </g>
    <g id="text_18">
     <!-- 0.8 -->
     <g transform="translate(266.39822 168.767864)scale(0.1 -0.1)">
      <defs>
       <path id="DejaVuSans-38" d="M 2034 2216 
Q 1584 2216 1326 1975 
Q 1069 1734 1069 1313 
Q 1069 891 1326 650 
Q 1584 409 2034 409 
Q 2484 409 2743 651 
Q 3003 894 3003 1313 
Q 3003 1734 2745 1975 
Q 2488 2216 2034 2216 
z
M 1403 2484 
Q 997 2584 770 2862 
Q 544 3141 544 3541 
Q 544 4100 942 4425 
Q 1341 4750 2034 4750 
Q 2731 4750 3128 4425 
Q 3525 4100 3525 3541 
Q 3525 3141 3298 2862 
Q 3072 2584 2669 2484 
Q 3125 2378 3379 2068 
Q 3634 1759 3634 1313 
Q 3634 634 3220 271 
Q 2806 -91 2034 -91 
Q 1263 -91 848 271 
Q 434 634 434 1313 
Q 434 1759 690 2068 
Q 947 2378 1403 2484 
z
M 1172 3481 
Q 1172 3119 1398 2916 
Q 1625 2713 2034 2713 
Q 2441 2713 2670 2916 
Q 2900 3119 2900 3481 
Q 2900 3844 2670 4047 
Q 2441 4250 2034 4250 
Q 1625 4250 1398 4047 
Q 1172 3844 1172 3481 
z
" transform="scale(0.015625)"/>
      </defs>
      <use xlink:href="#DejaVuSans-30"/>
      <use xlink:href="#DejaVuSans-2e" x="63.623047"/>
      <use xlink:href="#DejaVuSans-38" x="95.410156"/>
     </g>
    </g>
   </g>
   <g id="xtick_16">
    <g id="line2d_19">
     <path d="M 256.715581 133.539419 
L 259.975748 134.258755 
" style="fill: none; stroke: #000000; stroke-width: 0.8; stroke-linecap: square"/>
    </g>
    <g id="text_19">
     <!-- 1.0 -->
     <g transform="translate(267.370206 140.344305)scale(0.1 -0.1)">
      <defs>
       <path id="DejaVuSans-31" d="M 794 531 
L 1825 531 
L 1825 4091 
L 703 3866 
L 703 4441 
L 1819 4666 
L 2450 4666 
L 2450 531 
L 3481 531 
L 3481 0 
L 794 0 
L 794 531 
z
" transform="scale(0.015625)"/>
      </defs>
      <use xlink:href="#DejaVuSans-31"/>
      <use xlink:href="#DejaVuSans-2e" x="63.623047"/>
      <use xlink:href="#DejaVuSans-30" x="95.410156"/>
     </g>
    </g>
   </g>
  </g>
  <g id="axes_1">
   <g id="line2d_20">
    <path d="M 97.850445 273.060255 
L 186.781213 273.770753 
L 186.414195 245.27842 
L 101.279307 244.627305 
L 97.850445 273.060255 
" clip-path="url(#pd726d38182)" style="fill: none; stroke: #666666; stroke-width: 2; stroke-linecap: square"/>
   </g>
   <g id="line2d_21">
    <path d="M 142.999697 199.887353 
L 161.792446 203.538085 
L 137.318811 144.728712 
L 143.711214 102.608471 
L 135.52756 104.933719 
L 134.786486 121.441555 
L 132.719624 167.483783 
" clip-path="url(#pd726d38182)" style="fill: none; stroke: #d65a50; stroke-width: 4; stroke-linecap: square"/>
    <defs>
     <path id="me5723351da" d="M 0 2.5 
C 0.663008 2.5 1.29895 2.236584 1.767767 1.767767 
C 2.236584 1.29895 2.5 0.663008 2.5 0 
C 2.5 -0.663008 2.236584 -1.29895 1.767767 -1.767767 
C 1.29895 -2.236584 0.663008 -2.5 0 -2.5 
C -0.663008 -2.5 -1.29895 -2.236584 -1.767767 -1.767767 
C -2.236584 -1.29895 -2.5 -0.663008 -2.5 0 
C -2.5 0.663008 -2.236584 1.29895 -1.767767 1.767767 
C -1.29895 2.236584 -0.663008 2.5 0 2.5 
z
" style="stroke: #d65a50"/>
    </defs>
    <g clip-path="url(#pd726d38182)">
     <use xlink:href="#me5723351da" x="142.999697" y="199.887353" style="fill: #d65a50; stroke: #d65a50"/>
     <use xlink:href="#me5723351da" x="161.792446" y="203.538085" style="fill: #d65a50; stroke: #d65a50"/>
     <use xlink:href="#me5723351da" x="137.318811" y="144.728712" style="fill: #d65a50; stroke: #d65a50"/>
     <use xlink:href="#me5723351da" x="143.711214" y="102.608471" style="fill: #d65a50; stroke: #d65a50"/>
     <use xlink:href="#me5723351da" x="135.52756" y="104.933719" style="fill: #d65a50; stroke: #d65a50"/>
     <use xlink:href="#me5723351da" x="134.786486" y="121.441555" style="fill: #d65a50; stroke: #d65a50"/>
     <use xlink:href="#me5723351da" x="132.719624" y="167.483783" style="fill: #d65a50; stroke: #d65a50"/>
    </g>
   </g>
   <g id="line2d_22">
    <path d="M 143.075303 258.873531 
L 142.999697 199.887353 
" clip-path="url(#pd726d38182)" style="fill: none; stroke: #777777; stroke-width: 3; stroke-linecap: square"/>
   </g>
   <g id="Path3DCollection_1">
    <defs>
     <path id="ma8bd4cca47" d="M -3.162278 3.162278 
L 3.162278 -3.162278 
M -3.162278 -3.162278 
L 3.162278 3.162278 
" style="stroke: #000000; stroke-width: 1.5"/>
    </defs>
    <g clip-path="url(#pd726d38182)">
     <use xlink:href="#ma8bd4cca47" x="132.231316" y="162.679273" style="stroke: #000000; stroke-width: 1.5"/>
    </g>
   </g>
   <g id="text_20">
    <!-- Costs off -->
    <g transform="translate(122.110937 54.082187)scale(0.1 -0.1)">
     <defs>
      <path id="DejaVuSans-43" d="M 4122 4306 
L 4122 3641 
Q 3803 3938 3442 4084 
Q 3081 4231 2675 4231 
Q 1875 4231 1450 3742 
Q 1025 3253 1025 2328 
Q 1025 1406 1450 917 
Q 1875 428 2675 428 
Q 3081 428 3442 575 
Q 3803 722 4122 1019 
L 4122 359 
Q 3791 134 3420 21 
Q 3050 -91 2638 -91 
Q 1578 -91 968 557 
Q 359 1206 359 2328 
Q 359 3453 968 4101 
Q 1578 4750 2638 4750 
Q 3056 4750 3426 4639 
Q 3797 4528 4122 4306 
z
" transform="scale(0.015625)"/>
      <path id="DejaVuSans-73" d="M 2834 3397 
L 2834 2853 
Q 2591 2978 2328 3040 
Q 2066 3103 1784 3103 
Q 1356 3103 1142 2972 
Q 928 2841 928 2578 
Q 928 2378 1081 2264 
Q 1234 2150 1697 2047 
L 1894 2003 
Q 2506 1872 2764 1633 
Q 3022 1394 3022 966 
Q 3022 478 2636 193 
Q 2250 -91 1575 -91 
Q 1294 -91 989 -36 
Q 684 19 347 128 
L 347 722 
Q 666 556 975 473 
Q 1284 391 1588 391 
Q 1994 391 2212 530 
Q 2431 669 2431 922 
Q 2431 1156 2273 1281 
Q 2116 1406 1581 1522 
L 1381 1569 
Q 847 1681 609 1914 
Q 372 2147 372 2553 
Q 372 3047 722 3315 
Q 1072 3584 1716 3584 
Q 2034 3584 2315 3537 
Q 2597 3491 2834 3397 
z
" transform="scale(0.015625)"/>
      <path id="DejaVuSans-74" d="M 1172 4494 
L 1172 3500 
L 2356 3500 
L 2356 3053 
L 1172 3053 
L 1172 1153 
Q 1172 725 1289 603 
Q 1406 481 1766 481 
L 2356 481 
L 2356 0 
L 1766 0 
Q 1100 0 847 248 
Q 594 497 594 1153 
L 594 3053 
L 172 3053 
L 172 3500 
L 594 3500 
L 594 4494 
L 1172 4494 
z
" transform="scale(0.015625)"/>
      <path id="DejaVuSans-66" d="M 2375 4863 
L 2375 4384 
L 1825 4384 
Q 1516 4384 1395 4259 
Q 1275 4134 1275 3809 
L 1275 3500 
L 2222 3500 
L 2222 3053 
L 1275 3053 
L 1275 0 
L 697 0 
L 697 3053 
L 147 3053 
L 147 3500 
L 697 3500 
L 697 3744 
Q 697 4328 969 4595 
Q 1241 4863 1831 4863 
L 2375 4863 
z
" transform="scale(0.015625)"/>
     </defs>
     <use xlink:href="#DejaVuSans-43"/>
     <use xlink:href="#DejaVuSans-6f" x="69.824219"/>
     <use xlink:href="#DejaVuSans-73" x="131.005859"/>
     <use xlink:href="#DejaVuSans-74" x="183.105469"/>
     <use xlink:href="#DejaVuSans-73" x="222.314453"/>
     <use xlink:href="#DejaVuSans-20" x="274.414062"/>
     <use xlink:href="#DejaVuSans-6f" x="306.201172"/>
     <use xlink:href="#DejaVuSans-66" x="367.382812"/>
     <use xlink:href="#DejaVuSans-66" x="402.587891"/>
    </g>
    <!-- sigma=0.0188, elbow=-9.1 deg -->
    <g transform="translate(64.286719 65.28)scale(0.1 -0.1)">
     <defs>
      <path id="DejaVuSans-69" d="M 603 3500 
L 1178 3500 
L 1178 0 
L 603 0 
L 603 3500 
z
M 603 4863 
L 1178 4863 
L 1178 4134 
L 603 4134 
L 603 4863 
z
" transform="scale(0.015625)"/>
      <path id="DejaVuSans-67" d="M 2906 1791 
Q 2906 2416 2648 2759 
Q 2391 3103 1925 3103 
Q 1463 3103 1205 2759 
Q 947 2416 947 1791 
Q 947 1169 1205 825 
Q 1463 481 1925 481 
Q 2391 481 2648 825 
Q 2906 1169 2906 1791 
z
M 3481 434 
Q 3481 -459 3084 -895 
Q 2688 -1331 1869 -1331 
Q 1566 -1331 1297 -1286 
Q 1028 -1241 775 -1147 
L 775 -588 
Q 1028 -725 1275 -790 
Q 1522 -856 1778 -856 
Q 2344 -856 2625 -561 
Q 2906 -266 2906 331 
L 2906 616 
Q 2728 306 2450 153 
Q 2172 0 1784 0 
Q 1141 0 747 490 
Q 353 981 353 1791 
Q 353 2603 747 3093 
Q 1141 3584 1784 3584 
Q 2172 3584 2450 3431 
Q 2728 3278 2906 2969 
L 2906 3500 
L 3481 3500 
L 3481 434 
z
" transform="scale(0.015625)"/>
      <path id="DejaVuSans-61" d="M 2194 1759 
Q 1497 1759 1228 1600 
Q 959 1441 959 1056 
Q 959 750 1161 570 
Q 1363 391 1709 391 
Q 2188 391 2477 730 
Q 2766 1069 2766 1631 
L 2766 1759 
L 2194 1759 
z
M 3341 1997 
L 3341 0 
L 2766 0 
L 2766 531 
Q 2569 213 2275 61 
Q 1981 -91 1556 -91 
Q 1019 -91 701 211 
Q 384 513 384 1019 
Q 384 1609 779 1909 
Q 1175 2209 1959 2209 
L 2766 2209 
L 2766 2266 
Q 2766 2663 2505 2880 
Q 2244 3097 1772 3097 
Q 1472 3097 1187 3025 
Q 903 2953 641 2809 
L 641 3341 
Q 956 3463 1253 3523 
Q 1550 3584 1831 3584 
Q 2591 3584 2966 3190 
Q 3341 2797 3341 1997 
z
" transform="scale(0.015625)"/>
      <path id="DejaVuSans-3d" d="M 678 2906 
L 4684 2906 
L 4684 2381 
L 678 2381 
L 678 2906 
z
M 678 1631 
L 4684 1631 
L 4684 1100 
L 678 1100 
L 678 1631 
z
" transform="scale(0.015625)"/>
      <path id="DejaVuSans-2c" d="M 750 794 
L 1409 794 
L 1409 256 
L 897 -744 
L 494 -744 
L 750 256 
L 750 794 
z
" transform="scale(0.015625)"/>
      <path id="DejaVuSans-65" d="M 3597 1894 
L 3597 1613 
L 953 1613 
Q 991 1019 1311 708 
Q 1631 397 2203 397 
Q 2534 397 2845 478 
Q 3156 559 3463 722 
L 3463 178 
Q 3153 47 2828 -22 
Q 2503 -91 2169 -91 
Q 1331 -91 842 396 
Q 353 884 353 1716 
Q 353 2575 817 3079 
Q 1281 3584 2069 3584 
Q 2775 3584 3186 3129 
Q 3597 2675 3597 1894 
z
M 3022 2063 
Q 3016 2534 2758 2815 
Q 2500 3097 2075 3097 
Q 1594 3097 1305 2825 
Q 1016 2553 972 2059 
L 3022 2063 
z
" transform="scale(0.015625)"/>
      <path id="DejaVuSans-62" d="M 3116 1747 
Q 3116 2381 2855 2742 
Q 2594 3103 2138 3103 
Q 1681 3103 1420 2742 
Q 1159 2381 1159 1747 
Q 1159 1113 1420 752 
Q 1681 391 2138 391 
Q 2594 391 2855 752 
Q 3116 1113 3116 1747 
z
M 1159 2969 
Q 1341 3281 1617 3432 
Q 1894 3584 2278 3584 
Q 2916 3584 3314 3078 
Q 3713 2572 3713 1747 
Q 3713 922 3314 415 
Q 2916 -91 2278 -91 
Q 1894 -91 1617 61 
Q 1341 213 1159 525 
L 1159 0 
L 581 0 
L 581 4863 
L 1159 4863 
L 1159 2969 
z
" transform="scale(0.015625)"/>
      <path id="DejaVuSans-77" d="M 269 3500 
L 844 3500 
L 1563 769 
L 2278 3500 
L 2956 3500 
L 3675 769 
L 4391 3500 
L 4966 3500 
L 4050 0 
L 3372 0 
L 2619 2869 
L 1863 0 
L 1184 0 
L 269 3500 
z
" transform="scale(0.015625)"/>
      <path id="DejaVuSans-2d" d="M 313 2009 
L 1997 2009 
L 1997 1497 
L 313 1497 
L 313 2009 
z
" transform="scale(0.015625)"/>
      <path id="DejaVuSans-39" d="M 703 97 
L 703 672 
Q 941 559 1184 500 
Q 1428 441 1663 441 
Q 2288 441 2617 861 
Q 2947 1281 2994 2138 
Q 2813 1869 2534 1725 
Q 2256 1581 1919 1581 
Q 1219 1581 811 2004 
Q 403 2428 403 3163 
Q 403 3881 828 4315 
Q 1253 4750 1959 4750 
Q 2769 4750 3195 4129 
Q 3622 3509 3622 2328 
Q 3622 1225 3098 567 
Q 2575 -91 1691 -91 
Q 1453 -91 1209 -44 
Q 966 3 703 97 
z
M 1959 2075 
Q 2384 2075 2632 2365 
Q 2881 2656 2881 3163 
Q 2881 3666 2632 3958 
Q 2384 4250 1959 4250 
Q 1534 4250 1286 3958 
Q 1038 3666 1038 3163 
Q 1038 2656 1286 2365 
Q 1534 2075 1959 2075 
z
" transform="scale(0.015625)"/>
     </defs>
     <use xlink:href="#DejaVuSans-73"/>
     <use xlink:href="#DejaVuSans-69" x="52.099609"/>
     <use xlink:href="#DejaVuSans-67" x="79.882812"/>
     <use xlink:href="#DejaVuSans-6d" x="143.359375"/>
     <use xlink:href="#DejaVuSans-61" x="240.771484"/>
     <use xlink:href="#DejaVuSans-3d" x="302.050781"/>
     <use xlink:href="#DejaVuSans-30" x="385.839844"/>
     <use xlink:href="#DejaVuSans-2e" x="449.462891"/>
     <use xlink:href="#DejaVuSans-30" x="481.25"/>
     <use xlink:href="#DejaVuSans-31" x="544.873047"/>
     <use xlink:href="#DejaVuSans-38" x="608.496094"/>
     <use xlink:href="#DejaVuSans-38" x="672.119141"/>
     <use xlink:href="#DejaVuSans-2c" x="735.742188"/>
     <use xlink:href="#DejaVuSans-20" x="767.529297"/>
     <use xlink:href="#DejaVuSans-65" x="799.316406"/>
     <use xlink:href="#DejaVuSans-6c" x="860.839844"/>
     <use xlink:href="#DejaVuSans-62" x="888.623047"/>
     <use xlink:href="#DejaVuSans-6f" x="952.099609"/>
     <use xlink:href="#DejaVuSans-77" x="1013.28125"/>
     <use xlink:href="#DejaVuSans-3d" x="1095.068359"/>
     <use xlink:href="#DejaVuSans-2d" x="1178.857422"/>
     <use xlink:href="#DejaVuSans-39" x="1214.941406"/>
     <use xlink:href="#DejaVuSans-2e" x="1278.564453"/>
     <use xlink:href="#DejaVuSans-31" x="1310.351562"/>
     <use xlink:href="#DejaVuSans-20" x="1373.974609"/>
     <use xlink:href="#DejaVuSans-64" x="1405.761719"/>
     <use xlink:href="#DejaVuSans-65" x="1469.238281"/>
     <use xlink:href="#DejaVuSans-67" x="1530.761719"/>
    </g>
   </g>
  </g>
  <g id="patch_6">
   <path d="M 291.6 344.88 
L 565.2 344.88 
L 565.2 71.28 
L 291.6 71.28 
z
" style="fill: #ffffff"/>
  </g>
  <g id="pane3d_4">
   <g id="patch_7">
    <path d="M 323.618905 290.987338 
L 414.386503 240.310986 
L 413.644921 88.545911 
L 318.696864 128.829448 
" style="fill: #f2f2f2; opacity: 0.5; stroke: #f2f2f2; stroke-linejoin: miter"/>
   </g>
  </g>
  <g id="pane3d_5">
   <g id="patch_8">
    <path d="M 414.386503 240.310986 
L 538.034929 274.963851 
L 542.724121 116.062849 
L 413.644921 88.545911 
" style="fill: #e6e6e6; opacity: 0.5; stroke: #e6e6e6; stroke-linejoin: miter"/>
   </g>
  </g>
  <g id="pane3d_6">
   <g id="patch_9">
    <path d="M 323.618905 290.987338 
L 452.360021 331.584148 
L 538.034929 274.963851 
L 414.386503 240.310986 
" style="fill: #ececec; opacity: 0.5; stroke: #ececec; stroke-linejoin: miter"/>
   </g>
  </g>
  <g id="axis3d_4">
   <g id="line2d_23">
    <path d="M 323.618905 290.987338 
L 452.360021 331.584148 
" style="fill: none; stroke: #000000; stroke-width: 0.8; stroke-linecap: square"/>
   </g>
   <g id="text_21">
    <!-- World X (m) -->
    <g transform="translate(340.436548 342.659193)rotate(-342.49802)scale(0.1 -0.1)">
     <use xlink:href="#DejaVuSans-57"/>
     <use xlink:href="#DejaVuSans-6f" x="93.001953"/>
     <use xlink:href="#DejaVuSans-72" x="154.183594"/>
     <use xlink:href="#DejaVuSans-6c" x="195.296875"/>
     <use xlink:href="#DejaVuSans-64" x="223.080078"/>
     <use xlink:href="#DejaVuSans-20" x="286.556641"/>
     <use xlink:href="#DejaVuSans-58" x="318.34375"/>
     <use xlink:href="#DejaVuSans-20" x="386.849609"/>
     <use xlink:href="#DejaVuSans-28" x="418.636719"/>
     <use xlink:href="#DejaVuSans-6d" x="457.650391"/>
     <use xlink:href="#DejaVuSans-29" x="555.0625"/>
    </g>
   </g>
   <g id="Line3DCollection_4">
    <path d="M 331.914505 293.603246 
L 422.386705 242.553068 
L 421.978606 90.322475 
" style="fill: none; stroke: #b0b0b0; stroke-width: 0.8"/>
    <path d="M 355.683559 301.098504 
L 445.284299 248.970192 
L 445.84433 95.410139 
" style="fill: none; stroke: #b0b0b0; stroke-width: 0.8"/>
    <path d="M 379.97718 308.759176 
L 468.648896 255.518195 
L 470.217694 100.606022 
" style="fill: none; stroke: #b0b0b0; stroke-width: 0.8"/>
    <path d="M 404.812926 316.5908 
L 492.494931 262.201122 
L 495.115068 105.913612 
" style="fill: none; stroke: #b0b0b0; stroke-width: 0.8"/>
    <path d="M 430.209149 324.599163 
L 516.837437 269.023187 
L 520.553534 111.336552 
" style="fill: none; stroke: #b0b0b0; stroke-width: 0.8"/>
   </g>
   <g id="xtick_17">
    <g id="line2d_24">
     <path d="M 332.695905 293.162331 
L 330.34869 294.486779 
" style="fill: none; stroke: #000000; stroke-width: 0.8; stroke-linecap: square"/>
    </g>
    <g id="text_22">
     <!-- −0.6 -->
     <g transform="translate(312.21535 318.260036)scale(0.1 -0.1)">
      <use xlink:href="#DejaVuSans-2212"/>
      <use xlink:href="#DejaVuSans-30" x="83.789062"/>
      <use xlink:href="#DejaVuSans-2e" x="147.412109"/>
      <use xlink:href="#DejaVuSans-36" x="179.199219"/>
     </g>
    </g>
   </g>
   <g id="xtick_18">
    <g id="line2d_25">
     <path d="M 356.458055 300.647914 
L 354.131547 302.00144 
" style="fill: none; stroke: #000000; stroke-width: 0.8; stroke-linecap: square"/>
    </g>
    <g id="text_23">
     <!-- −0.4 -->
     <g transform="translate(335.97312 325.964562)scale(0.1 -0.1)">
      <use xlink:href="#DejaVuSans-2212"/>
      <use xlink:href="#DejaVuSans-30" x="83.789062"/>
      <use xlink:href="#DejaVuSans-2e" x="147.412109"/>
      <use xlink:href="#DejaVuSans-34" x="179.199219"/>
     </g>
    </g>
   </g>
   <g id="xtick_19">
    <g id="line2d_26">
     <path d="M 380.744274 308.298591 
L 378.439965 309.682163 
" style="fill: none; stroke: #000000; stroke-width: 0.8; stroke-linecap: square"/>
    </g>
    <g id="text_24">
     <!-- −0.2 -->
     <g transform="translate(360.256801 333.839639)scale(0.1 -0.1)">
      <use xlink:href="#DejaVuSans-2212"/>
      <use xlink:href="#DejaVuSans-30" x="83.789062"/>
      <use xlink:href="#DejaVuSans-2e" x="147.412109"/>
      <use xlink:href="#DejaVuSans-32" x="179.199219"/>
     </g>
    </g>
   </g>
   <g id="xtick_20">
    <g id="line2d_27">
     <path d="M 405.572095 316.119883 
L 403.291559 317.534513 
" style="fill: none; stroke: #000000; stroke-width: 0.8; stroke-linecap: square"/>
    </g>
    <g id="text_25">
     <!-- 0.0 -->
     <g transform="translate(389.273895 341.890993)scale(0.1 -0.1)">
      <use xlink:href="#DejaVuSans-30"/>
      <use xlink:href="#DejaVuSans-2e" x="63.623047"/>
      <use xlink:href="#DejaVuSans-30" x="95.410156"/>
     </g>
    </g>
   </g>
   <g id="xtick_21">
    <g id="line2d_28">
     <path d="M 430.959837 324.117562 
L 428.704743 325.564308 
" style="fill: none; stroke: #000000; stroke-width: 0.8; stroke-linecap: square"/>
    </g>
    <g id="text_26">
     <!-- 0.2 -->
     <g transform="translate(414.663172 350.124609)scale(0.1 -0.1)">
      <use xlink:href="#DejaVuSans-30"/>
      <use xlink:href="#DejaVuSans-2e" x="63.623047"/>
      <use xlink:href="#DejaVuSans-32" x="95.410156"/>
     </g>
    </g>
   </g>
  </g>
  <g id="axis3d_5">
   <g id="line2d_29">
    <path d="M 538.034929 274.963851 
L 452.360021 331.584148 
" style="fill: none; stroke: #000000; stroke-width: 0.8; stroke-linecap: square"/>
   </g>
   <g id="text_27">
    <!-- World Y (m) -->
    <g transform="translate(496.938157 355.189926)rotate(-33.459669)scale(0.1 -0.1)">
     <use xlink:href="#DejaVuSans-57"/>
     <use xlink:href="#DejaVuSans-6f" x="93.001953"/>
     <use xlink:href="#DejaVuSans-72" x="154.183594"/>
     <use xlink:href="#DejaVuSans-6c" x="195.296875"/>
     <use xlink:href="#DejaVuSans-64" x="223.080078"/>
     <use xlink:href="#DejaVuSans-20" x="286.556641"/>
     <use xlink:href="#DejaVuSans-59" x="318.34375"/>
     <use xlink:href="#DejaVuSans-20" x="379.427734"/>
     <use xlink:href="#DejaVuSans-28" x="411.214844"/>
     <use xlink:href="#DejaVuSans-6d" x="450.228516"/>
     <use xlink:href="#DejaVuSans-29" x="547.640625"/>
    </g>
   </g>
   <g id="Line3DCollection_5">
    <path d="M 335.342296 121.767304 
L 339.487473 282.127777 
L 467.392539 321.649551 
" style="fill: none; stroke: #b0b0b0; stroke-width: 0.8"/>
    <path d="M 354.26622 113.738465 
L 357.550859 272.042828 
L 484.476168 310.35943 
" style="fill: none; stroke: #b0b0b0; stroke-width: 0.8"/>
    <path d="M 372.609051 105.956167 
L 375.082641 262.25468 
L 501.028515 299.420418 
" style="fill: none; stroke: #b0b0b0; stroke-width: 0.8"/>
    <path d="M 390.39715 98.409224 
L 392.105945 252.750418 
L 517.073985 288.816389 
" style="fill: none; stroke: #b0b0b0; stroke-width: 0.8"/>
    <path d="M 407.655305 91.08712 
L 408.642576 243.517871 
L 532.635508 278.532186 
" style="fill: none; stroke: #b0b0b0; stroke-width: 0.8"/>
   </g>
   <g id="xtick_22">
    <g id="line2d_30">
     <path d="M 466.309918 321.315029 
L 469.560827 322.319537 
" style="fill: none; stroke: #000000; stroke-width: 0.8; stroke-linecap: square"/>
    </g>
    <g id="text_28">
     <!-- −0.6 -->
     <g transform="translate(466.05975 345.608812)scale(0.1 -0.1)">
      <use xlink:href="#DejaVuSans-2212"/>
      <use xlink:href="#DejaVuSans-30" x="83.789062"/>
      <use xlink:href="#DejaVuSans-2e" x="147.412109"/>
      <use xlink:href="#DejaVuSans-36" x="179.199219"/>
     </g>
    </g>
   </g>
   <g id="xtick_23">
    <g id="line2d_31">
     <path d="M 483.40277 310.035389 
L 486.625935 311.008408 
" style="fill: none; stroke: #000000; stroke-width: 0.8; stroke-linecap: square"/>
    </g>
    <g id="text_29">
     <!-- −0.4 -->
     <g transform="translate(482.990378 334.04817)scale(0.1 -0.1)">
      <use xlink:href="#DejaVuSans-2212"/>
      <use xlink:href="#DejaVuSans-30" x="83.789062"/>
      <use xlink:href="#DejaVuSans-2e" x="147.412109"/>
      <use xlink:href="#DejaVuSans-34" x="179.199219"/>
     </g>
    </g>
   </g>
   <g id="xtick_24">
    <g id="line2d_32">
     <path d="M 499.964295 299.106374 
L 503.159856 300.049362 
" style="fill: none; stroke: #000000; stroke-width: 0.8; stroke-linecap: square"/>
    </g>
    <g id="text_30">
     <!-- −0.2 -->
     <g transform="translate(499.393939 322.847422)scale(0.1 -0.1)">
      <use xlink:href="#DejaVuSans-2212"/>
      <use xlink:href="#DejaVuSans-30" x="83.789062"/>
      <use xlink:href="#DejaVuSans-2e" x="147.412109"/>
      <use xlink:href="#DejaVuSans-32" x="179.199219"/>
     </g>
    </g>
   </g>
   <g id="xtick_25">
    <g id="line2d_33">
     <path d="M 516.018887 288.511886 
L 519.187011 289.426211 
" style="fill: none; stroke: #000000; stroke-width: 0.8; stroke-linecap: square"/>
    </g>
    <g id="text_31">
     <!-- 0.0 -->
     <g transform="translate(519.484512 311.990019)scale(0.1 -0.1)">
      <use xlink:href="#DejaVuSans-30"/>
      <use xlink:href="#DejaVuSans-2e" x="63.623047"/>
      <use xlink:href="#DejaVuSans-30" x="95.410156"/>
     </g>
    </g>
   </g>
   <g id="xtick_26">
    <g id="line2d_34">
     <path d="M 531.589471 278.236796 
L 534.730347 279.123747 
" style="fill: none; stroke: #000000; stroke-width: 0.8; stroke-linecap: square"/>
    </g>
    <g id="text_32">
     <!-- 0.2 -->
     <g transform="translate(534.905181 301.460413)scale(0.1 -0.1)">
      <use xlink:href="#DejaVuSans-30"/>
      <use xlink:href="#DejaVuSans-2e" x="63.623047"/>
      <use xlink:href="#DejaVuSans-32" x="95.410156"/>
     </g>
    </g>
   </g>
  </g>
  <g id="axis3d_6">
   <g id="line2d_35">
    <path d="M 538.034929 274.963851 
L 542.724121 116.062849 
" style="fill: none; stroke: #000000; stroke-width: 0.8; stroke-linecap: square"/>
   </g>
   <g id="text_33">
    <!-- Z (m) -->
    <g transform="translate(580.045014 208.626934)rotate(-88.309684)scale(0.1 -0.1)">
     <use xlink:href="#DejaVuSans-5a"/>
     <use xlink:href="#DejaVuSans-20" x="68.505859"/>
     <use xlink:href="#DejaVuSans-28" x="100.292969"/>
     <use xlink:href="#DejaVuSans-6d" x="139.306641"/>
     <use xlink:href="#DejaVuSans-29" x="236.71875"/>
    </g>
   </g>
   <g id="Line3DCollection_6">
    <path d="M 538.124814 271.917957 
L 414.372256 237.395326 
L 323.524655 287.882251 
" style="fill: none; stroke: #b0b0b0; stroke-width: 0.8"/>
    <path d="M 538.915785 245.114582 
L 414.246938 211.749053 
L 322.695106 260.552536 
" style="fill: none; stroke: #b0b0b0; stroke-width: 0.8"/>
    <path d="M 539.718647 217.908291 
L 414.119836 185.737556 
L 321.852782 232.801981 
" style="fill: none; stroke: #b0b0b0; stroke-width: 0.8"/>
    <path d="M 540.533669 190.28993 
L 413.990911 159.352977 
L 320.997388 204.620788 
" style="fill: none; stroke: #b0b0b0; stroke-width: 0.8"/>
    <path d="M 541.361129 162.250068 
L 413.860124 132.587231 
L 320.128615 175.998856 
" style="fill: none; stroke: #b0b0b0; stroke-width: 0.8"/>
    <path d="M 542.201315 133.778979 
L 413.727433 105.431999 
L 319.246148 146.925764 
" style="fill: none; stroke: #b0b0b0; stroke-width: 0.8"/>
   </g>
   <g id="xtick_27">
    <g id="line2d_36">
     <path d="M 537.081045 271.626782 
L 540.215096 272.501073 
" style="fill: none; stroke: #000000; stroke-width: 0.8; stroke-linecap: square"/>
    </g>
    <g id="text_34">
     <!-- 0.0 -->
     <g transform="translate(547.053948 278.260625)scale(0.1 -0.1)">
      <use xlink:href="#DejaVuSans-30"/>
      <use xlink:href="#DejaVuSans-2e" x="63.623047"/>
      <use xlink:href="#DejaVuSans-30" x="95.410156"/>
     </g>
    </g>
   </g>
   <g id="xtick_28">
    <g id="line2d_37">
     <path d="M 537.863885 244.833058 
L 541.022373 245.678375 
" style="fill: none; stroke: #000000; stroke-width: 0.8; stroke-linecap: square"/>
    </g>
    <g id="text_35">
     <!-- 0.2 -->
     <g transform="translate(547.969107 251.498886)scale(0.1 -0.1)">
      <use xlink:href="#DejaVuSans-30"/>
      <use xlink:href="#DejaVuSans-2e" x="63.623047"/>
      <use xlink:href="#DejaVuSans-32" x="95.410156"/>
     </g>
    </g>
   </g>
   <g id="xtick_29">
    <g id="line2d_38">
     <path d="M 538.658487 217.636743 
L 541.841797 218.452112 
" style="fill: none; stroke: #000000; stroke-width: 0.8; stroke-linecap: square"/>
    </g>
    <g id="text_36">
     <!-- 0.4 -->
     <g transform="translate(548.897996 224.335629)scale(0.1 -0.1)">
      <use xlink:href="#DejaVuSans-30"/>
      <use xlink:href="#DejaVuSans-2e" x="63.623047"/>
      <use xlink:href="#DejaVuSans-34" x="95.410156"/>
     </g>
    </g>
   </g>
   <g id="xtick_30">
    <g id="line2d_39">
     <path d="M 539.465119 190.028693 
L 542.673643 190.813108 
" style="fill: none; stroke: #000000; stroke-width: 0.8; stroke-linecap: square"/>
    </g>
    <g id="text_37">
     <!-- 0.6 -->
     <g transform="translate(549.840926 196.761749)scale(0.1 -0.1)">
      <use xlink:href="#DejaVuSans-30"/>
      <use xlink:href="#DejaVuSans-2e" x="63.623047"/>
      <use xlink:href="#DejaVuSans-36" x="95.410156"/>
     </g>
    </g>
   </g>
   <g id="xtick_31">
    <g id="line2d_40">
     <path d="M 540.284056 161.999489 
L 543.518195 162.751905 
" style="fill: none; stroke: #000000; stroke-width: 0.8; stroke-linecap: square"/>
    </g>
    <g id="text_38">
     <!-- 0.8 -->
     <g transform="translate(550.79822 168.767864)scale(0.1 -0.1)">
      <use xlink:href="#DejaVuSans-30"/>
      <use xlink:href="#DejaVuSans-2e" x="63.623047"/>
      <use xlink:href="#DejaVuSans-38" x="95.410156"/>
     </g>
    </g>
   </g>
   <g id="xtick_32">
    <g id="line2d_41">
     <path d="M 541.115581 133.539419 
L 544.375748 134.258755 
" style="fill: none; stroke: #000000; stroke-width: 0.8; stroke-linecap: square"/>
    </g>
    <g id="text_39">
     <!-- 1.0 -->
     <g transform="translate(551.770206 140.344305)scale(0.1 -0.1)">
      <use xlink:href="#DejaVuSans-31"/>
      <use xlink:href="#DejaVuSans-2e" x="63.623047"/>
      <use xlink:href="#DejaVuSans-30" x="95.410156"/>
     </g>
    </g>
   </g>
  </g>
  <g id="axes_2">
   <g id="line2d_42">
    <path d="M 380.726353 276.780412 
L 468.61395 270.748492 
L 456.073159 242.86129 
L 371.800366 248.394989 
L 380.726353 276.780412 
" clip-path="url(#p93afba5458)" style="fill: none; stroke: #666666; stroke-width: 2; stroke-linecap: square"/>
   </g>
   <g id="line2d_43">
    <path d="M 419.170038 200.355872 
L 438.988717 203.112016 
L 417.491902 141.932104 
L 425.127568 102.860452 
L 418.930042 105.111832 
L 418.384633 121.677381 
L 416.861989 167.926068 
" clip-path="url(#p93afba5458)" style="fill: none; stroke: #237cba; stroke-width: 4; stroke-linecap: square"/>
    <defs>
     <path id="m5a56bed5ee" d="M 0 2.5 
C 0.663008 2.5 1.29895 2.236584 1.767767 1.767767 
C 2.236584 1.29895 2.5 0.663008 2.5 0 
C 2.5 -0.663008 2.236584 -1.29895 1.767767 -1.767767 
C 1.29895 -2.236584 0.663008 -2.5 0 -2.5 
C -0.663008 -2.5 -1.29895 -2.236584 -1.767767 -1.767767 
C -2.236584 -1.29895 -2.5 -0.663008 -2.5 0 
C -2.5 0.663008 -2.236584 1.29895 -1.767767 1.767767 
C -1.29895 2.236584 -0.663008 2.5 0 2.5 
z
" style="stroke: #237cba"/>
    </defs>
    <g clip-path="url(#p93afba5458)">
     <use xlink:href="#m5a56bed5ee" x="419.170038" y="200.355872" style="fill: #237cba; stroke: #237cba"/>
     <use xlink:href="#m5a56bed5ee" x="438.988717" y="203.112016" style="fill: #237cba; stroke: #237cba"/>
     <use xlink:href="#m5a56bed5ee" x="417.491902" y="141.932104" style="fill: #237cba; stroke: #237cba"/>
     <use xlink:href="#m5a56bed5ee" x="425.127568" y="102.860452" style="fill: #237cba; stroke: #237cba"/>
     <use xlink:href="#m5a56bed5ee" x="418.930042" y="105.111832" style="fill: #237cba; stroke: #237cba"/>
     <use xlink:href="#m5a56bed5ee" x="418.384633" y="121.677381" style="fill: #237cba; stroke: #237cba"/>
     <use xlink:href="#m5a56bed5ee" x="416.861989" y="167.926068" style="fill: #237cba; stroke: #237cba"/>
    </g>
   </g>
   <g id="line2d_44">
    <path d="M 419.37826 259.380354 
L 419.170038 200.355872 
" clip-path="url(#p93afba5458)" style="fill: none; stroke: #777777; stroke-width: 3; stroke-linecap: square"/>
   </g>
   <g id="Path3DCollection_2">
    <g clip-path="url(#p93afba5458)">
     <use xlink:href="#ma8bd4cca47" x="416.529436" y="162.632323" style="stroke: #000000; stroke-width: 1.5"/>
    </g>
   </g>
   <g id="text_40">
    <!-- Sigma margin -->
    <g transform="translate(393.504687 54.082187)scale(0.1 -0.1)">
     <defs>
      <path id="DejaVuSans-53" d="M 3425 4513 
L 3425 3897 
Q 3066 4069 2747 4153 
Q 2428 4238 2131 4238 
Q 1616 4238 1336 4038 
Q 1056 3838 1056 3469 
Q 1056 3159 1242 3001 
Q 1428 2844 1947 2747 
L 2328 2669 
Q 3034 2534 3370 2195 
Q 3706 1856 3706 1288 
Q 3706 609 3251 259 
Q 2797 -91 1919 -91 
Q 1588 -91 1214 -16 
Q 841 59 441 206 
L 441 856 
Q 825 641 1194 531 
Q 1563 422 1919 422 
Q 2459 422 2753 634 
Q 3047 847 3047 1241 
Q 3047 1584 2836 1778 
Q 2625 1972 2144 2069 
L 1759 2144 
Q 1053 2284 737 2584 
Q 422 2884 422 3419 
Q 422 4038 858 4394 
Q 1294 4750 2059 4750 
Q 2388 4750 2728 4690 
Q 3069 4631 3425 4513 
z
" transform="scale(0.015625)"/>
      <path id="DejaVuSans-6e" d="M 3513 2113 
L 3513 0 
L 2938 0 
L 2938 2094 
Q 2938 2591 2744 2837 
Q 2550 3084 2163 3084 
Q 1697 3084 1428 2787 
Q 1159 2491 1159 1978 
L 1159 0 
L 581 0 
L 581 3500 
L 1159 3500 
L 1159 2956 
Q 1366 3272 1645 3428 
Q 1925 3584 2291 3584 
Q 2894 3584 3203 3211 
Q 3513 2838 3513 2113 
z
" transform="scale(0.015625)"/>
     </defs>
     <use xlink:href="#DejaVuSans-53"/>
     <use xlink:href="#DejaVuSans-69" x="63.476562"/>
     <use xlink:href="#DejaVuSans-67" x="91.259766"/>
     <use xlink:href="#DejaVuSans-6d" x="154.736328"/>
     <use xlink:href="#DejaVuSans-61" x="252.148438"/>
     <use xlink:href="#DejaVuSans-20" x="313.427734"/>
     <use xlink:href="#DejaVuSans-6d" x="345.214844"/>
     <use xlink:href="#DejaVuSans-61" x="442.626953"/>
     <use xlink:href="#DejaVuSans-72" x="503.90625"/>
     <use xlink:href="#DejaVuSans-67" x="543.269531"/>
     <use xlink:href="#DejaVuSans-69" x="606.746094"/>
     <use xlink:href="#DejaVuSans-6e" x="634.529297"/>
    </g>
    <!-- sigma=0.0429, elbow=-21.5 deg -->
    <g transform="translate(345.505469 65.28)scale(0.1 -0.1)">
     <defs>
      <path id="DejaVuSans-35" d="M 691 4666 
L 3169 4666 
L 3169 4134 
L 1269 4134 
L 1269 2991 
Q 1406 3038 1543 3061 
Q 1681 3084 1819 3084 
Q 2600 3084 3056 2656 
Q 3513 2228 3513 1497 
Q 3513 744 3044 326 
Q 2575 -91 1722 -91 
Q 1428 -91 1123 -41 
Q 819 9 494 109 
L 494 744 
Q 775 591 1075 516 
Q 1375 441 1709 441 
Q 2250 441 2565 725 
Q 2881 1009 2881 1497 
Q 2881 1984 2565 2268 
Q 2250 2553 1709 2553 
Q 1456 2553 1204 2497 
Q 953 2441 691 2322 
L 691 4666 
z
" transform="scale(0.015625)"/>
     </defs>
     <use xlink:href="#DejaVuSans-73"/>
     <use xlink:href="#DejaVuSans-69" x="52.099609"/>
     <use xlink:href="#DejaVuSans-67" x="79.882812"/>
     <use xlink:href="#DejaVuSans-6d" x="143.359375"/>
     <use xlink:href="#DejaVuSans-61" x="240.771484"/>
     <use xlink:href="#DejaVuSans-3d" x="302.050781"/>
     <use xlink:href="#DejaVuSans-30" x="385.839844"/>
     <use xlink:href="#DejaVuSans-2e" x="449.462891"/>
     <use xlink:href="#DejaVuSans-30" x="481.25"/>
     <use xlink:href="#DejaVuSans-34" x="544.873047"/>
     <use xlink:href="#DejaVuSans-32" x="608.496094"/>
     <use xlink:href="#DejaVuSans-39" x="672.119141"/>
     <use xlink:href="#DejaVuSans-2c" x="735.742188"/>
     <use xlink:href="#DejaVuSans-20" x="767.529297"/>
     <use xlink:href="#DejaVuSans-65" x="799.316406"/>
     <use xlink:href="#DejaVuSans-6c" x="860.839844"/>
     <use xlink:href="#DejaVuSans-62" x="888.623047"/>
     <use xlink:href="#DejaVuSans-6f" x="952.099609"/>
     <use xlink:href="#DejaVuSans-77" x="1013.28125"/>
     <use xlink:href="#DejaVuSans-3d" x="1095.068359"/>
     <use xlink:href="#DejaVuSans-2d" x="1178.857422"/>
     <use xlink:href="#DejaVuSans-32" x="1214.941406"/>
     <use xlink:href="#DejaVuSans-31" x="1278.564453"/>
     <use xlink:href="#DejaVuSans-2e" x="1342.1875"/>
     <use xlink:href="#DejaVuSans-35" x="1373.974609"/>
     <use xlink:href="#DejaVuSans-20" x="1437.597656"/>
     <use xlink:href="#DejaVuSans-64" x="1469.384766"/>
     <use xlink:href="#DejaVuSans-65" x="1532.861328"/>
     <use xlink:href="#DejaVuSans-67" x="1594.384766"/>
    </g>
   </g>
  </g>
  <g id="patch_10">
   <path d="M 576 344.88 
L 849.6 344.88 
L 849.6 71.28 
L 576 71.28 
z
" style="fill: #ffffff"/>
  </g>
  <g id="pane3d_7">
   <g id="patch_11">
    <path d="M 608.018905 290.987338 
L 698.786503 240.310986 
L 698.044921 88.545911 
L 603.096864 128.829448 
" style="fill: #f2f2f2; opacity: 0.5; stroke: #f2f2f2; stroke-linejoin: miter"/>
   </g>
  </g>
  <g id="pane3d_8">
   <g id="patch_12">
    <path d="M 698.786503 240.310986 
L 822.434929 274.963851 
L 827.124121 116.062849 
L 698.044921 88.545911 
" style="fill: #e6e6e6; opacity: 0.5; stroke: #e6e6e6; stroke-linejoin: miter"/>
   </g>
  </g>
  <g id="pane3d_9">
   <g id="patch_13">
    <path d="M 608.018905 290.987338 
L 736.760021 331.584148 
L 822.434929 274.963851 
L 698.786503 240.310986 
" style="fill: #ececec; opacity: 0.5; stroke: #ececec; stroke-linejoin: miter"/>
   </g>
  </g>
  <g id="axis3d_7">
   <g id="line2d_45">
    <path d="M 608.018905 290.987338 
L 736.760021 331.584148 
" style="fill: none; stroke: #000000; stroke-width: 0.8; stroke-linecap: square"/>
   </g>
   <g id="text_41">
    <!-- World X (m) -->
    <g transform="translate(624.836548 342.659193)rotate(-342.49802)scale(0.1 -0.1)">
     <use xlink:href="#DejaVuSans-57"/>
     <use xlink:href="#DejaVuSans-6f" x="93.001953"/>
     <use xlink:href="#DejaVuSans-72" x="154.183594"/>
     <use xlink:href="#DejaVuSans-6c" x="195.296875"/>
     <use xlink:href="#DejaVuSans-64" x="223.080078"/>
     <use xlink:href="#DejaVuSans-20" x="286.556641"/>
     <use xlink:href="#DejaVuSans-58" x="318.34375"/>
     <use xlink:href="#DejaVuSans-20" x="386.849609"/>
     <use xlink:href="#DejaVuSans-28" x="418.636719"/>
     <use xlink:href="#DejaVuSans-6d" x="457.650391"/>
     <use xlink:href="#DejaVuSans-29" x="555.0625"/>
    </g>
   </g>
   <g id="Line3DCollection_7">
    <path d="M 616.314505 293.603246 
L 706.786705 242.553068 
L 706.378606 90.322475 
" style="fill: none; stroke: #b0b0b0; stroke-width: 0.8"/>
    <path d="M 640.083559 301.098504 
L 729.684299 248.970192 
L 730.24433 95.410139 
" style="fill: none; stroke: #b0b0b0; stroke-width: 0.8"/>
    <path d="M 664.37718 308.759176 
L 753.048896 255.518195 
L 754.617694 100.606022 
" style="fill: none; stroke: #b0b0b0; stroke-width: 0.8"/>
    <path d="M 689.212926 316.5908 
L 776.894931 262.201122 
L 779.515068 105.913612 
" style="fill: none; stroke: #b0b0b0; stroke-width: 0.8"/>
    <path d="M 714.609149 324.599163 
L 801.237437 269.023187 
L 804.953534 111.336552 
" style="fill: none; stroke: #b0b0b0; stroke-width: 0.8"/>
   </g>
   <g id="xtick_33">
    <g id="line2d_46">
     <path d="M 617.095905 293.162331 
L 614.74869 294.486779 
" style="fill: none; stroke: #000000; stroke-width: 0.8; stroke-linecap: square"/>
    </g>
    <g id="text_42">
     <!-- −0.6 -->
     <g transform="translate(596.61535 318.260036)scale(0.1 -0.1)">
      <use xlink:href="#DejaVuSans-2212"/>
      <use xlink:href="#DejaVuSans-30" x="83.789062"/>
      <use xlink:href="#DejaVuSans-2e" x="147.412109"/>
      <use xlink:href="#DejaVuSans-36" x="179.199219"/>
     </g>
    </g>
   </g>
   <g id="xtick_34">
    <g id="line2d_47">
     <path d="M 640.858055 300.647914 
L 638.531547 302.00144 
" style="fill: none; stroke: #000000; stroke-width: 0.8; stroke-linecap: square"/>
    </g>
    <g id="text_43">
     <!-- −0.4 -->
     <g transform="translate(620.37312 325.964562)scale(0.1 -0.1)">
      <use xlink:href="#DejaVuSans-2212"/>
      <use xlink:href="#DejaVuSans-30" x="83.789062"/>
      <use xlink:href="#DejaVuSans-2e" x="147.412109"/>
      <use xlink:href="#DejaVuSans-34" x="179.199219"/>
     </g>
    </g>
   </g>
   <g id="xtick_35">
    <g id="line2d_48">
     <path d="M 665.144274 308.298591 
L 662.839965 309.682163 
" style="fill: none; stroke: #000000; stroke-width: 0.8; stroke-linecap: square"/>
    </g>
    <g id="text_44">
     <!-- −0.2 -->
     <g transform="translate(644.656801 333.839639)scale(0.1 -0.1)">
      <use xlink:href="#DejaVuSans-2212"/>
      <use xlink:href="#DejaVuSans-30" x="83.789062"/>
      <use xlink:href="#DejaVuSans-2e" x="147.412109"/>
      <use xlink:href="#DejaVuSans-32" x="179.199219"/>
     </g>
    </g>
   </g>
   <g id="xtick_36">
    <g id="line2d_49">
     <path d="M 689.972095 316.119883 
L 687.691559 317.534513 
" style="fill: none; stroke: #000000; stroke-width: 0.8; stroke-linecap: square"/>
    </g>
    <g id="text_45">
     <!-- 0.0 -->
     <g transform="translate(673.673895 341.890993)scale(0.1 -0.1)">
      <use xlink:href="#DejaVuSans-30"/>
      <use xlink:href="#DejaVuSans-2e" x="63.623047"/>
      <use xlink:href="#DejaVuSans-30" x="95.410156"/>
     </g>
    </g>
   </g>
   <g id="xtick_37">
    <g id="line2d_50">
     <path d="M 715.359837 324.117562 
L 713.104743 325.564308 
" style="fill: none; stroke: #000000; stroke-width: 0.8; stroke-linecap: square"/>
    </g>
    <g id="text_46">
     <!-- 0.2 -->
     <g transform="translate(699.063172 350.124609)scale(0.1 -0.1)">
      <use xlink:href="#DejaVuSans-30"/>
      <use xlink:href="#DejaVuSans-2e" x="63.623047"/>
      <use xlink:href="#DejaVuSans-32" x="95.410156"/>
     </g>
    </g>
   </g>
  </g>
  <g id="axis3d_8">
   <g id="line2d_51">
    <path d="M 822.434929 274.963851 
L 736.760021 331.584148 
" style="fill: none; stroke: #000000; stroke-width: 0.8; stroke-linecap: square"/>
   </g>
   <g id="text_47">
    <!-- World Y (m) -->
    <g transform="translate(781.338157 355.189926)rotate(-33.459669)scale(0.1 -0.1)">
     <use xlink:href="#DejaVuSans-57"/>
     <use xlink:href="#DejaVuSans-6f" x="93.001953"/>
     <use xlink:href="#DejaVuSans-72" x="154.183594"/>
     <use xlink:href="#DejaVuSans-6c" x="195.296875"/>
     <use xlink:href="#DejaVuSans-64" x="223.080078"/>
     <use xlink:href="#DejaVuSans-20" x="286.556641"/>
     <use xlink:href="#DejaVuSans-59" x="318.34375"/>
     <use xlink:href="#DejaVuSans-20" x="379.427734"/>
     <use xlink:href="#DejaVuSans-28" x="411.214844"/>
     <use xlink:href="#DejaVuSans-6d" x="450.228516"/>
     <use xlink:href="#DejaVuSans-29" x="547.640625"/>
    </g>
   </g>
   <g id="Line3DCollection_8">
    <path d="M 619.742296 121.767304 
L 623.887473 282.127777 
L 751.792539 321.649551 
" style="fill: none; stroke: #b0b0b0; stroke-width: 0.8"/>
    <path d="M 638.66622 113.738465 
L 641.950859 272.042828 
L 768.876168 310.35943 
" style="fill: none; stroke: #b0b0b0; stroke-width: 0.8"/>
    <path d="M 657.009051 105.956167 
L 659.482641 262.25468 
L 785.428515 299.420418 
" style="fill: none; stroke: #b0b0b0; stroke-width: 0.8"/>
    <path d="M 674.79715 98.409224 
L 676.505945 252.750418 
L 801.473985 288.816389 
" style="fill: none; stroke: #b0b0b0; stroke-width: 0.8"/>
    <path d="M 692.055305 91.08712 
L 693.042576 243.517871 
L 817.035508 278.532186 
" style="fill: none; stroke: #b0b0b0; stroke-width: 0.8"/>
   </g>
   <g id="xtick_38">
    <g id="line2d_52">
     <path d="M 750.709918 321.315029 
L 753.960827 322.319537 
" style="fill: none; stroke: #000000; stroke-width: 0.8; stroke-linecap: square"/>
    </g>
    <g id="text_48">
     <!-- −0.6 -->
     <g transform="translate(750.45975 345.608812)scale(0.1 -0.1)">
      <use xlink:href="#DejaVuSans-2212"/>
      <use xlink:href="#DejaVuSans-30" x="83.789062"/>
      <use xlink:href="#DejaVuSans-2e" x="147.412109"/>
      <use xlink:href="#DejaVuSans-36" x="179.199219"/>
     </g>
    </g>
   </g>
   <g id="xtick_39">
    <g id="line2d_53">
     <path d="M 767.80277 310.035389 
L 771.025935 311.008408 
" style="fill: none; stroke: #000000; stroke-width: 0.8; stroke-linecap: square"/>
    </g>
    <g id="text_49">
     <!-- −0.4 -->
     <g transform="translate(767.390378 334.04817)scale(0.1 -0.1)">
      <use xlink:href="#DejaVuSans-2212"/>
      <use xlink:href="#DejaVuSans-30" x="83.789062"/>
      <use xlink:href="#DejaVuSans-2e" x="147.412109"/>
      <use xlink:href="#DejaVuSans-34" x="179.199219"/>
     </g>
    </g>
   </g>
   <g id="xtick_40">
    <g id="line2d_54">
     <path d="M 784.364295 299.106374 
L 787.559856 300.049362 
" style="fill: none; stroke: #000000; stroke-width: 0.8; stroke-linecap: square"/>
    </g>
    <g id="text_50">
     <!-- −0.2 -->
     <g transform="translate(783.793939 322.847422)scale(0.1 -0.1)">
      <use xlink:href="#DejaVuSans-2212"/>
      <use xlink:href="#DejaVuSans-30" x="83.789062"/>
      <use xlink:href="#DejaVuSans-2e" x="147.412109"/>
      <use xlink:href="#DejaVuSans-32" x="179.199219"/>
     </g>
    </g>
   </g>
   <g id="xtick_41">
    <g id="line2d_55">
     <path d="M 800.418887 288.511886 
L 803.587011 289.426211 
" style="fill: none; stroke: #000000; stroke-width: 0.8; stroke-linecap: square"/>
    </g>
    <g id="text_51">
     <!-- 0.0 -->
     <g transform="translate(803.884512 311.990019)scale(0.1 -0.1)">
      <use xlink:href="#DejaVuSans-30"/>
      <use xlink:href="#DejaVuSans-2e" x="63.623047"/>
      <use xlink:href="#DejaVuSans-30" x="95.410156"/>
     </g>
    </g>
   </g>
   <g id="xtick_42">
    <g id="line2d_56">
     <path d="M 815.989471 278.236796 
L 819.130347 279.123747 
" style="fill: none; stroke: #000000; stroke-width: 0.8; stroke-linecap: square"/>
    </g>
    <g id="text_52">
     <!-- 0.2 -->
     <g transform="translate(819.305181 301.460413)scale(0.1 -0.1)">
      <use xlink:href="#DejaVuSans-30"/>
      <use xlink:href="#DejaVuSans-2e" x="63.623047"/>
      <use xlink:href="#DejaVuSans-32" x="95.410156"/>
     </g>
    </g>
   </g>
  </g>
  <g id="axis3d_9">
   <g id="line2d_57">
    <path d="M 822.434929 274.963851 
L 827.124121 116.062849 
" style="fill: none; stroke: #000000; stroke-width: 0.8; stroke-linecap: square"/>
   </g>
   <g id="text_53">
    <!-- Z (m) -->
    <g transform="translate(864.445014 208.626934)rotate(-88.309684)scale(0.1 -0.1)">
     <use xlink:href="#DejaVuSans-5a"/>
     <use xlink:href="#DejaVuSans-20" x="68.505859"/>
     <use xlink:href="#DejaVuSans-28" x="100.292969"/>
     <use xlink:href="#DejaVuSans-6d" x="139.306641"/>
     <use xlink:href="#DejaVuSans-29" x="236.71875"/>
    </g>
   </g>
   <g id="Line3DCollection_9">
    <path d="M 822.524814 271.917957 
L 698.772256 237.395326 
L 607.924655 287.882251 
" style="fill: none; stroke: #b0b0b0; stroke-width: 0.8"/>
    <path d="M 823.315785 245.114582 
L 698.646938 211.749053 
L 607.095106 260.552536 
" style="fill: none; stroke: #b0b0b0; stroke-width: 0.8"/>
    <path d="M 824.118647 217.908291 
L 698.519836 185.737556 
L 606.252782 232.801981 
" style="fill: none; stroke: #b0b0b0; stroke-width: 0.8"/>
    <path d="M 824.933669 190.28993 
L 698.390911 159.352977 
L 605.397388 204.620788 
" style="fill: none; stroke: #b0b0b0; stroke-width: 0.8"/>
    <path d="M 825.761129 162.250068 
L 698.260124 132.587231 
L 604.528615 175.998856 
" style="fill: none; stroke: #b0b0b0; stroke-width: 0.8"/>
    <path d="M 826.601315 133.778979 
L 698.127433 105.431999 
L 603.646148 146.925764 
" style="fill: none; stroke: #b0b0b0; stroke-width: 0.8"/>
   </g>
   <g id="xtick_43">
    <g id="line2d_58">
     <path d="M 821.481045 271.626782 
L 824.615096 272.501073 
" style="fill: none; stroke: #000000; stroke-width: 0.8; stroke-linecap: square"/>
    </g>
    <g id="text_54">
     <!-- 0.0 -->
     <g transform="translate(831.453948 278.260625)scale(0.1 -0.1)">
      <use xlink:href="#DejaVuSans-30"/>
      <use xlink:href="#DejaVuSans-2e" x="63.623047"/>
      <use xlink:href="#DejaVuSans-30" x="95.410156"/>
     </g>
    </g>
   </g>
   <g id="xtick_44">
    <g id="line2d_59">
     <path d="M 822.263885 244.833058 
L 825.422373 245.678375 
" style="fill: none; stroke: #000000; stroke-width: 0.8; stroke-linecap: square"/>
    </g>
    <g id="text_55">
     <!-- 0.2 -->
     <g transform="translate(832.369107 251.498886)scale(0.1 -0.1)">
      <use xlink:href="#DejaVuSans-30"/>
      <use xlink:href="#DejaVuSans-2e" x="63.623047"/>
      <use xlink:href="#DejaVuSans-32" x="95.410156"/>
     </g>
    </g>
   </g>
   <g id="xtick_45">
    <g id="line2d_60">
     <path d="M 823.058487 217.636743 
L 826.241797 218.452112 
" style="fill: none; stroke: #000000; stroke-width: 0.8; stroke-linecap: square"/>
    </g>
    <g id="text_56">
     <!-- 0.4 -->
     <g transform="translate(833.297996 224.335629)scale(0.1 -0.1)">
      <use xlink:href="#DejaVuSans-30"/>
      <use xlink:href="#DejaVuSans-2e" x="63.623047"/>
      <use xlink:href="#DejaVuSans-34" x="95.410156"/>
     </g>
    </g>
   </g>
   <g id="xtick_46">
    <g id="line2d_61">
     <path d="M 823.865119 190.028693 
L 827.073643 190.813108 
" style="fill: none; stroke: #000000; stroke-width: 0.8; stroke-linecap: square"/>
    </g>
    <g id="text_57">
     <!-- 0.6 -->
     <g transform="translate(834.240926 196.761749)scale(0.1 -0.1)">
      <use xlink:href="#DejaVuSans-30"/>
      <use xlink:href="#DejaVuSans-2e" x="63.623047"/>
      <use xlink:href="#DejaVuSans-36" x="95.410156"/>
     </g>
    </g>
   </g>
   <g id="xtick_47">
    <g id="line2d_62">
     <path d="M 824.684056 161.999489 
L 827.918195 162.751905 
" style="fill: none; stroke: #000000; stroke-width: 0.8; stroke-linecap: square"/>
    </g>
    <g id="text_58">
     <!-- 0.8 -->
     <g transform="translate(835.19822 168.767864)scale(0.1 -0.1)">
      <use xlink:href="#DejaVuSans-30"/>
      <use xlink:href="#DejaVuSans-2e" x="63.623047"/>
      <use xlink:href="#DejaVuSans-38" x="95.410156"/>
     </g>
    </g>
   </g>
   <g id="xtick_48">
    <g id="line2d_63">
     <path d="M 825.515581 133.539419 
L 828.775748 134.258755 
" style="fill: none; stroke: #000000; stroke-width: 0.8; stroke-linecap: square"/>
    </g>
    <g id="text_59">
     <!-- 1.0 -->
     <g transform="translate(836.170206 140.344305)scale(0.1 -0.1)">
      <use xlink:href="#DejaVuSans-31"/>
      <use xlink:href="#DejaVuSans-2e" x="63.623047"/>
      <use xlink:href="#DejaVuSans-30" x="95.410156"/>
     </g>
    </g>
   </g>
  </g>
  <g id="axes_3">
   <g id="line2d_64">
    <path d="M 665.087512 276.772954 
L 752.979313 270.751904 
L 740.459635 242.863128 
L 656.18333 248.386834 
L 665.087512 276.772954 
" clip-path="url(#pcc617b723b)" style="fill: none; stroke: #666666; stroke-width: 2; stroke-linecap: square"/>
   </g>
   <g id="line2d_65">
    <path d="M 703.543494 200.353496 
L 723.363931 203.107626 
L 701.880346 141.914917 
L 709.517773 102.854492 
L 703.325154 105.097776 
L 702.779474 121.664364 
L 701.25604 167.916936 
" clip-path="url(#pcc617b723b)" style="fill: none; stroke: #299773; stroke-width: 4; stroke-linecap: square"/>
    <defs>
     <path id="mb13a049468" d="M 0 2.5 
C 0.663008 2.5 1.29895 2.236584 1.767767 1.767767 
C 2.236584 1.29895 2.5 0.663008 2.5 0 
C 2.5 -0.663008 2.236584 -1.29895 1.767767 -1.767767 
C 1.29895 -2.236584 0.663008 -2.5 0 -2.5 
C -0.663008 -2.5 -1.29895 -2.236584 -1.767767 -1.767767 
C -2.236584 -1.29895 -2.5 -0.663008 -2.5 0 
C -2.5 0.663008 -2.236584 1.29895 -1.767767 1.767767 
C -1.29895 2.236584 -0.663008 2.5 0 2.5 
z
" style="stroke: #299773"/>
    </defs>
    <g clip-path="url(#pcc617b723b)">
     <use xlink:href="#mb13a049468" x="703.543494" y="200.353496" style="fill: #299773; stroke: #299773"/>
     <use xlink:href="#mb13a049468" x="723.363931" y="203.107626" style="fill: #299773; stroke: #299773"/>
     <use xlink:href="#mb13a049468" x="701.880346" y="141.914917" style="fill: #299773; stroke: #299773"/>
     <use xlink:href="#mb13a049468" x="709.517773" y="102.854492" style="fill: #299773; stroke: #299773"/>
     <use xlink:href="#mb13a049468" x="703.325154" y="105.097776" style="fill: #299773; stroke: #299773"/>
     <use xlink:href="#mb13a049468" x="702.779474" y="121.664364" style="fill: #299773; stroke: #299773"/>
     <use xlink:href="#mb13a049468" x="701.25604" y="167.916936" style="fill: #299773; stroke: #299773"/>
    </g>
   </g>
   <g id="line2d_66">
    <path d="M 703.752143 259.377784 
L 703.543494 200.353496 
" clip-path="url(#pcc617b723b)" style="fill: none; stroke: #777777; stroke-width: 3; stroke-linecap: square"/>
   </g>
   <g id="Path3DCollection_3">
    <g clip-path="url(#pcc617b723b)">
     <use xlink:href="#ma8bd4cca47" x="700.932511" y="162.60262" style="stroke: #000000; stroke-width: 1.5"/>
    </g>
   </g>
   <g id="text_60">
    <!-- Sigma + Yoshikawa -->
    <g transform="translate(664.121875 54.082187)scale(0.1 -0.1)">
     <defs>
      <path id="DejaVuSans-2b" d="M 2944 4013 
L 2944 2272 
L 4684 2272 
L 4684 1741 
L 2944 1741 
L 2944 0 
L 2419 0 
L 2419 1741 
L 678 1741 
L 678 2272 
L 2419 2272 
L 2419 4013 
L 2944 4013 
z
" transform="scale(0.015625)"/>
      <path id="DejaVuSans-68" d="M 3513 2113 
L 3513 0 
L 2938 0 
L 2938 2094 
Q 2938 2591 2744 2837 
Q 2550 3084 2163 3084 
Q 1697 3084 1428 2787 
Q 1159 2491 1159 1978 
L 1159 0 
L 581 0 
L 581 4863 
L 1159 4863 
L 1159 2956 
Q 1366 3272 1645 3428 
Q 1925 3584 2291 3584 
Q 2894 3584 3203 3211 
Q 3513 2838 3513 2113 
z
" transform="scale(0.015625)"/>
      <path id="DejaVuSans-6b" d="M 581 4863 
L 1159 4863 
L 1159 1991 
L 2875 3500 
L 3609 3500 
L 1753 1863 
L 3688 0 
L 2938 0 
L 1159 1709 
L 1159 0 
L 581 0 
L 581 4863 
z
" transform="scale(0.015625)"/>
     </defs>
     <use xlink:href="#DejaVuSans-53"/>
     <use xlink:href="#DejaVuSans-69" x="63.476562"/>
     <use xlink:href="#DejaVuSans-67" x="91.259766"/>
     <use xlink:href="#DejaVuSans-6d" x="154.736328"/>
     <use xlink:href="#DejaVuSans-61" x="252.148438"/>
     <use xlink:href="#DejaVuSans-20" x="313.427734"/>
     <use xlink:href="#DejaVuSans-2b" x="345.214844"/>
     <use xlink:href="#DejaVuSans-20" x="429.003906"/>
     <use xlink:href="#DejaVuSans-59" x="460.791016"/>
     <use xlink:href="#DejaVuSans-6f" x="508.625"/>
     <use xlink:href="#DejaVuSans-73" x="569.806641"/>
     <use xlink:href="#DejaVuSans-68" x="621.90625"/>
     <use xlink:href="#DejaVuSans-69" x="685.285156"/>
     <use xlink:href="#DejaVuSans-6b" x="713.068359"/>
     <use xlink:href="#DejaVuSans-61" x="769.228516"/>
     <use xlink:href="#DejaVuSans-77" x="830.507812"/>
     <use xlink:href="#DejaVuSans-61" x="912.294922"/>
    </g>
    <!-- sigma=0.0430, elbow=-21.5 deg -->
    <g transform="translate(629.905469 65.28)scale(0.1 -0.1)">
     <defs>
      <path id="DejaVuSans-33" d="M 2597 2516 
Q 3050 2419 3304 2112 
Q 3559 1806 3559 1356 
Q 3559 666 3084 287 
Q 2609 -91 1734 -91 
Q 1441 -91 1130 -33 
Q 819 25 488 141 
L 488 750 
Q 750 597 1062 519 
Q 1375 441 1716 441 
Q 2309 441 2620 675 
Q 2931 909 2931 1356 
Q 2931 1769 2642 2001 
Q 2353 2234 1838 2234 
L 1294 2234 
L 1294 2753 
L 1863 2753 
Q 2328 2753 2575 2939 
Q 2822 3125 2822 3475 
Q 2822 3834 2567 4026 
Q 2313 4219 1838 4219 
Q 1578 4219 1281 4162 
Q 984 4106 628 3988 
L 628 4550 
Q 988 4650 1302 4700 
Q 1616 4750 1894 4750 
Q 2613 4750 3031 4423 
Q 3450 4097 3450 3541 
Q 3450 3153 3228 2886 
Q 3006 2619 2597 2516 
z
" transform="scale(0.015625)"/>
     </defs>
     <use xlink:href="#DejaVuSans-73"/>
     <use xlink:href="#DejaVuSans-69" x="52.099609"/>
     <use xlink:href="#DejaVuSans-67" x="79.882812"/>
     <use xlink:href="#DejaVuSans-6d" x="143.359375"/>
     <use xlink:href="#DejaVuSans-61" x="240.771484"/>
     <use xlink:href="#DejaVuSans-3d" x="302.050781"/>
     <use xlink:href="#DejaVuSans-30" x="385.839844"/>
     <use xlink:href="#DejaVuSans-2e" x="449.462891"/>
     <use xlink:href="#DejaVuSans-30" x="481.25"/>
     <use xlink:href="#DejaVuSans-34" x="544.873047"/>
     <use xlink:href="#DejaVuSans-33" x="608.496094"/>
     <use xlink:href="#DejaVuSans-30" x="672.119141"/>
     <use xlink:href="#DejaVuSans-2c" x="735.742188"/>
     <use xlink:href="#DejaVuSans-20" x="767.529297"/>
     <use xlink:href="#DejaVuSans-65" x="799.316406"/>
     <use xlink:href="#DejaVuSans-6c" x="860.839844"/>
     <use xlink:href="#DejaVuSans-62" x="888.623047"/>
     <use xlink:href="#DejaVuSans-6f" x="952.099609"/>
     <use xlink:href="#DejaVuSans-77" x="1013.28125"/>
     <use xlink:href="#DejaVuSans-3d" x="1095.068359"/>
     <use xlink:href="#DejaVuSans-2d" x="1178.857422"/>
     <use xlink:href="#DejaVuSans-32" x="1214.941406"/>
     <use xlink:href="#DejaVuSans-31" x="1278.564453"/>
     <use xlink:href="#DejaVuSans-2e" x="1342.1875"/>
     <use xlink:href="#DejaVuSans-35" x="1373.974609"/>
     <use xlink:href="#DejaVuSans-20" x="1437.597656"/>
     <use xlink:href="#DejaVuSans-64" x="1469.384766"/>
     <use xlink:href="#DejaVuSans-65" x="1532.861328"/>
     <use xlink:href="#DejaVuSans-67" x="1594.384766"/>
    </g>
   </g>
  </g>
  <g id="text_61">
   <!-- Matched-time measured arm poses (14.8 s): URDF joint-origin geometry; cross = TCP reference -->
   <g transform="translate(164.88125 15.558281)scale(0.11 -0.11)">
    <defs>
     <path id="DejaVuSans-4d" d="M 628 4666 
L 1569 4666 
L 2759 1491 
L 3956 4666 
L 4897 4666 
L 4897 0 
L 4281 0 
L 4281 4097 
L 3078 897 
L 2444 897 
L 1241 4097 
L 1241 0 
L 628 0 
L 628 4666 
z
" transform="scale(0.015625)"/>
     <path id="DejaVuSans-63" d="M 3122 3366 
L 3122 2828 
Q 2878 2963 2633 3030 
Q 2388 3097 2138 3097 
Q 1578 3097 1268 2742 
Q 959 2388 959 1747 
Q 959 1106 1268 751 
Q 1578 397 2138 397 
Q 2388 397 2633 464 
Q 2878 531 3122 666 
L 3122 134 
Q 2881 22 2623 -34 
Q 2366 -91 2075 -91 
Q 1284 -91 818 406 
Q 353 903 353 1747 
Q 353 2603 823 3093 
Q 1294 3584 2113 3584 
Q 2378 3584 2631 3529 
Q 2884 3475 3122 3366 
z
" transform="scale(0.015625)"/>
     <path id="DejaVuSans-75" d="M 544 1381 
L 544 3500 
L 1119 3500 
L 1119 1403 
Q 1119 906 1312 657 
Q 1506 409 1894 409 
Q 2359 409 2629 706 
Q 2900 1003 2900 1516 
L 2900 3500 
L 3475 3500 
L 3475 0 
L 2900 0 
L 2900 538 
Q 2691 219 2414 64 
Q 2138 -91 1772 -91 
Q 1169 -91 856 284 
Q 544 659 544 1381 
z
M 1991 3584 
L 1991 3584 
z
" transform="scale(0.015625)"/>
     <path id="DejaVuSans-70" d="M 1159 525 
L 1159 -1331 
L 581 -1331 
L 581 3500 
L 1159 3500 
L 1159 2969 
Q 1341 3281 1617 3432 
Q 1894 3584 2278 3584 
Q 2916 3584 3314 3078 
Q 3713 2572 3713 1747 
Q 3713 922 3314 415 
Q 2916 -91 2278 -91 
Q 1894 -91 1617 61 
Q 1341 213 1159 525 
z
M 3116 1747 
Q 3116 2381 2855 2742 
Q 2594 3103 2138 3103 
Q 1681 3103 1420 2742 
Q 1159 2381 1159 1747 
Q 1159 1113 1420 752 
Q 1681 391 2138 391 
Q 2594 391 2855 752 
Q 3116 1113 3116 1747 
z
" transform="scale(0.015625)"/>
     <path id="DejaVuSans-3a" d="M 750 794 
L 1409 794 
L 1409 0 
L 750 0 
L 750 794 
z
M 750 3309 
L 1409 3309 
L 1409 2516 
L 750 2516 
L 750 3309 
z
" transform="scale(0.015625)"/>
     <path id="DejaVuSans-55" d="M 556 4666 
L 1191 4666 
L 1191 1831 
Q 1191 1081 1462 751 
Q 1734 422 2344 422 
Q 2950 422 3222 751 
Q 3494 1081 3494 1831 
L 3494 4666 
L 4128 4666 
L 4128 1753 
Q 4128 841 3676 375 
Q 3225 -91 2344 -91 
Q 1459 -91 1007 375 
Q 556 841 556 1753 
L 556 4666 
z
" transform="scale(0.015625)"/>
     <path id="DejaVuSans-52" d="M 2841 2188 
Q 3044 2119 3236 1894 
Q 3428 1669 3622 1275 
L 4263 0 
L 3584 0 
L 2988 1197 
Q 2756 1666 2539 1819 
Q 2322 1972 1947 1972 
L 1259 1972 
L 1259 0 
L 628 0 
L 628 4666 
L 2053 4666 
Q 2853 4666 3247 4331 
Q 3641 3997 3641 3322 
Q 3641 2881 3436 2590 
Q 3231 2300 2841 2188 
z
M 1259 4147 
L 1259 2491 
L 2053 2491 
Q 2509 2491 2742 2702 
Q 2975 2913 2975 3322 
Q 2975 3731 2742 3939 
Q 2509 4147 2053 4147 
L 1259 4147 
z
" transform="scale(0.015625)"/>
     <path id="DejaVuSans-44" d="M 1259 4147 
L 1259 519 
L 2022 519 
Q 2988 519 3436 956 
Q 3884 1394 3884 2338 
Q 3884 3275 3436 3711 
Q 2988 4147 2022 4147 
L 1259 4147 
z
M 628 4666 
L 1925 4666 
Q 3281 4666 3915 4102 
Q 4550 3538 4550 2338 
Q 4550 1131 3912 565 
Q 3275 0 1925 0 
L 628 0 
L 628 4666 
z
" transform="scale(0.015625)"/>
     <path id="DejaVuSans-46" d="M 628 4666 
L 3309 4666 
L 3309 4134 
L 1259 4134 
L 1259 2759 
L 3109 2759 
L 3109 2228 
L 1259 2228 
L 1259 0 
L 628 0 
L 628 4666 
z
" transform="scale(0.015625)"/>
     <path id="DejaVuSans-6a" d="M 603 3500 
L 1178 3500 
L 1178 -63 
Q 1178 -731 923 -1031 
Q 669 -1331 103 -1331 
L -116 -1331 
L -116 -844 
L 38 -844 
Q 366 -844 484 -692 
Q 603 -541 603 -63 
L 603 3500 
z
M 603 4863 
L 1178 4863 
L 1178 4134 
L 603 4134 
L 603 4863 
z
" transform="scale(0.015625)"/>
     <path id="DejaVuSans-79" d="M 2059 -325 
Q 1816 -950 1584 -1140 
Q 1353 -1331 966 -1331 
L 506 -1331 
L 506 -850 
L 844 -850 
Q 1081 -850 1212 -737 
Q 1344 -625 1503 -206 
L 1606 56 
L 191 3500 
L 800 3500 
L 1894 763 
L 2988 3500 
L 3597 3500 
L 2059 -325 
z
" transform="scale(0.015625)"/>
     <path id="DejaVuSans-3b" d="M 750 3309 
L 1409 3309 
L 1409 2516 
L 750 2516 
L 750 3309 
z
M 750 794 
L 1409 794 
L 1409 256 
L 897 -744 
L 494 -744 
L 750 256 
L 750 794 
z
" transform="scale(0.015625)"/>
     <path id="DejaVuSans-54" d="M -19 4666 
L 3928 4666 
L 3928 4134 
L 2272 4134 
L 2272 0 
L 1638 0 
L 1638 4134 
L -19 4134 
L -19 4666 
z
" transform="scale(0.015625)"/>
     <path id="DejaVuSans-50" d="M 1259 4147 
L 1259 2394 
L 2053 2394 
Q 2494 2394 2734 2622 
Q 2975 2850 2975 3272 
Q 2975 3691 2734 3919 
Q 2494 4147 2053 4147 
L 1259 4147 
z
M 628 4666 
L 2053 4666 
Q 2838 4666 3239 4311 
Q 3641 3956 3641 3272 
Q 3641 2581 3239 2228 
Q 2838 1875 2053 1875 
L 1259 1875 
L 1259 0 
L 628 0 
L 628 4666 
z
" transform="scale(0.015625)"/>
    </defs>
    <use xlink:href="#DejaVuSans-4d"/>
    <use xlink:href="#DejaVuSans-61" x="86.279297"/>
    <use xlink:href="#DejaVuSans-74" x="147.558594"/>
    <use xlink:href="#DejaVuSans-63" x="186.767578"/>
    <use xlink:href="#DejaVuSans-68" x="241.748047"/>
    <use xlink:href="#DejaVuSans-65" x="305.126953"/>
    <use xlink:href="#DejaVuSans-64" x="366.650391"/>
    <use xlink:href="#DejaVuSans-2d" x="430.126953"/>
    <use xlink:href="#DejaVuSans-74" x="466.210938"/>
    <use xlink:href="#DejaVuSans-69" x="505.419922"/>
    <use xlink:href="#DejaVuSans-6d" x="533.203125"/>
    <use xlink:href="#DejaVuSans-65" x="630.615234"/>
    <use xlink:href="#DejaVuSans-20" x="692.138672"/>
    <use xlink:href="#DejaVuSans-6d" x="723.925781"/>
    <use xlink:href="#DejaVuSans-65" x="821.337891"/>
    <use xlink:href="#DejaVuSans-61" x="882.861328"/>
    <use xlink:href="#DejaVuSans-73" x="944.140625"/>
    <use xlink:href="#DejaVuSans-75" x="996.240234"/>
    <use xlink:href="#DejaVuSans-72" x="1059.619141"/>
    <use xlink:href="#DejaVuSans-65" x="1098.482422"/>
    <use xlink:href="#DejaVuSans-64" x="1160.005859"/>
    <use xlink:href="#DejaVuSans-20" x="1223.482422"/>
    <use xlink:href="#DejaVuSans-61" x="1255.269531"/>
    <use xlink:href="#DejaVuSans-72" x="1316.548828"/>
    <use xlink:href="#DejaVuSans-6d" x="1355.912109"/>
    <use xlink:href="#DejaVuSans-20" x="1453.324219"/>
    <use xlink:href="#DejaVuSans-70" x="1485.111328"/>
    <use xlink:href="#DejaVuSans-6f" x="1548.587891"/>
    <use xlink:href="#DejaVuSans-73" x="1609.769531"/>
    <use xlink:href="#DejaVuSans-65" x="1661.869141"/>
    <use xlink:href="#DejaVuSans-73" x="1723.392578"/>
    <use xlink:href="#DejaVuSans-20" x="1775.492188"/>
    <use xlink:href="#DejaVuSans-28" x="1807.279297"/>
    <use xlink:href="#DejaVuSans-31" x="1846.292969"/>
    <use xlink:href="#DejaVuSans-34" x="1909.916016"/>
    <use xlink:href="#DejaVuSans-2e" x="1973.539062"/>
    <use xlink:href="#DejaVuSans-38" x="2005.326172"/>
    <use xlink:href="#DejaVuSans-20" x="2068.949219"/>
    <use xlink:href="#DejaVuSans-73" x="2100.736328"/>
    <use xlink:href="#DejaVuSans-29" x="2152.835938"/>
    <use xlink:href="#DejaVuSans-3a" x="2191.849609"/>
    <use xlink:href="#DejaVuSans-20" x="2225.541016"/>
    <use xlink:href="#DejaVuSans-55" x="2257.328125"/>
    <use xlink:href="#DejaVuSans-52" x="2330.521484"/>
    <use xlink:href="#DejaVuSans-44" x="2400.003906"/>
    <use xlink:href="#DejaVuSans-46" x="2477.005859"/>
    <use xlink:href="#DejaVuSans-20" x="2534.525391"/>
    <use xlink:href="#DejaVuSans-6a" x="2566.3125"/>
    <use xlink:href="#DejaVuSans-6f" x="2594.095703"/>
    <use xlink:href="#DejaVuSans-69" x="2655.277344"/>
    <use xlink:href="#DejaVuSans-6e" x="2683.060547"/>
    <use xlink:href="#DejaVuSans-74" x="2746.439453"/>
    <use xlink:href="#DejaVuSans-2d" x="2785.648438"/>
    <use xlink:href="#DejaVuSans-6f" x="2823.607422"/>
    <use xlink:href="#DejaVuSans-72" x="2884.789062"/>
    <use xlink:href="#DejaVuSans-69" x="2925.902344"/>
    <use xlink:href="#DejaVuSans-67" x="2953.685547"/>
    <use xlink:href="#DejaVuSans-69" x="3017.162109"/>
    <use xlink:href="#DejaVuSans-6e" x="3044.945312"/>
    <use xlink:href="#DejaVuSans-20" x="3108.324219"/>
    <use xlink:href="#DejaVuSans-67" x="3140.111328"/>
    <use xlink:href="#DejaVuSans-65" x="3203.587891"/>
    <use xlink:href="#DejaVuSans-6f" x="3265.111328"/>
    <use xlink:href="#DejaVuSans-6d" x="3326.292969"/>
    <use xlink:href="#DejaVuSans-65" x="3423.705078"/>
    <use xlink:href="#DejaVuSans-74" x="3485.228516"/>
    <use xlink:href="#DejaVuSans-72" x="3524.4375"/>
    <use xlink:href="#DejaVuSans-79" x="3565.550781"/>
    <use xlink:href="#DejaVuSans-3b" x="3624.730469"/>
    <use xlink:href="#DejaVuSans-20" x="3658.421875"/>
    <use xlink:href="#DejaVuSans-63" x="3690.208984"/>
    <use xlink:href="#DejaVuSans-72" x="3745.189453"/>
    <use xlink:href="#DejaVuSans-6f" x="3784.052734"/>
    <use xlink:href="#DejaVuSans-73" x="3845.234375"/>
    <use xlink:href="#DejaVuSans-73" x="3897.333984"/>
    <use xlink:href="#DejaVuSans-20" x="3949.433594"/>
    <use xlink:href="#DejaVuSans-3d" x="3981.220703"/>
    <use xlink:href="#DejaVuSans-20" x="4065.009766"/>
    <use xlink:href="#DejaVuSans-54" x="4096.796875"/>
    <use xlink:href="#DejaVuSans-43" x="4152.005859"/>
    <use xlink:href="#DejaVuSans-50" x="4221.830078"/>
    <use xlink:href="#DejaVuSans-20" x="4282.132812"/>
    <use xlink:href="#DejaVuSans-72" x="4313.919922"/>
    <use xlink:href="#DejaVuSans-65" x="4352.783203"/>
    <use xlink:href="#DejaVuSans-66" x="4414.306641"/>
    <use xlink:href="#DejaVuSans-65" x="4449.511719"/>
    <use xlink:href="#DejaVuSans-72" x="4511.035156"/>
    <use xlink:href="#DejaVuSans-65" x="4549.898438"/>
    <use xlink:href="#DejaVuSans-6e" x="4611.421875"/>
    <use xlink:href="#DejaVuSans-63" x="4674.800781"/>
    <use xlink:href="#DejaVuSans-65" x="4729.78125"/>
   </g>
  </g>
 </g>
 <defs>
  <clipPath id="pd726d38182">
   <rect x="7.2" y="71.28" width="273.6" height="273.6"/>
  </clipPath>
  <clipPath id="p93afba5458">
   <rect x="291.6" y="71.28" width="273.6" height="273.6"/>
  </clipPath>
  <clipPath id="pcc617b723b">
   <rect x="576" y="71.28" width="273.6" height="273.6"/>
  </clipPath>
 </defs>
</svg>
